<?xml version="1.0" encoding="UTF-8"?>
<svg id="Calque_2" data-name="Calque 2" xmlns="http://www.w3.org/2000/svg" viewBox="0 0 949.79 244.13">
  <defs>
    <style>
      .cls-1 {
        fill-rule: evenodd;
      }

      .cls-1, .cls-2 {
        fill: #fff;
        stroke-width: 0px;
      }
    </style>
  </defs>
  <g id="Calque_1-2" data-name="Calque 1">
    <g>
      <g>
        <g>
          <path class="cls-1" d="m260.28,22.21c4.93-2.47,6.9-8.43,4.47-13.28-2.4-4.78-8.35-6.76-13.28-4.29-4.93,2.47-6.98,8.47-4.58,13.25,2.43,4.85,8.46,6.8,13.39,4.33Z"/>
          <path class="cls-1" d="m197.26,58.87c1.73.86,2.7,2.49,2.63,4.35-.15,3.61-.2,5.41-.28,9.01-.03,1.35.3,2.76.91,4.13,1.15-1.31,2.32-2.58,3.52-3.76,6.54-6.41,14.32-11.46,23.13-15.01,8.79-3.53,18.45-5.32,28.7-5.32,8.19,0,15.99,1.17,23.26,3.45,9.82-16.09-7.44-37.62-28.98-20.69-6.21,4.96-7.23,8.96-12.24,12.39-8.11,5.45-12.55-1.34-8.65-6.06,2.59-3.23,4.41-3.77,6.91-5.67,12.31-9.2,4.21-27.6-12.92-23.34-33.32,8.33-69.83,49.28-76.14,87.24,0,.01,0,.02,0,.03,13.12-14.67,27.9-27.93,43.62-40,.2-.15.41-.28.62-.41,1.86-1.08,4.13-1.2,5.9-.32Z"/>
        </g>
        <g>
          <g>
            <g>
              <path class="cls-2" d="m338.84,185.77h-34.45l48.64-124.51h34.45l48.56,124.51h-34.45l-8.05-22.16h-46.65l-8.05,22.16Zm18.51-50.8h25.81l-12.95-35.53-12.87,35.53Z"/>
              <path class="cls-2" d="m559.85,185.77h-38.68l-44.82-73.88v73.88h-32.87V61.26h38.68l44.82,74.13V61.26h32.87v124.51Z"/>
              <path class="cls-2" d="m601.73,185.77h-34.45l48.64-124.51h34.45l48.56,124.51h-34.45l-8.05-22.16h-46.65l-8.05,22.16Zm18.51-50.8h25.82l-12.95-35.53-12.87,35.53Z"/>
              <path class="cls-2" d="m706.36,185.77V61.26h44.08c14.89,0,27.85,2.57,38.89,7.72,11.04,5.15,19.62,12.38,25.73,21.71,6.11,9.33,9.17,20.27,9.17,32.83s-3.06,23.44-9.17,32.79c-6.12,9.35-14.69,16.6-25.73,21.75-11.04,5.15-24,7.72-38.89,7.72h-44.08Zm32.87-28.64h12.29c8.41,0,15.52-1.3,21.33-3.9,5.81-2.6,10.22-6.4,13.24-11.41,3.02-5.01,4.52-11.11,4.52-18.3s-1.51-13.36-4.52-18.34c-3.02-4.98-7.43-8.77-13.24-11.37-5.81-2.6-12.92-3.9-21.33-3.9h-12.29v67.24Z"/>
              <path class="cls-2" d="m852.59,185.77h-34.45l48.64-124.51h34.45l48.56,124.51h-34.45l-8.05-22.16h-46.65l-8.05,22.16Zm18.51-50.8h25.81l-12.95-35.53-12.87,35.53Z"/>
              <g>
                <path class="cls-2" d="m211.94,84.1c9.56-.57,14.32-.71,23.79-.71,3.04,0,5.76,1.56,7.11,4.03.41.74.65,1.53.78,2.34,3.63-1.57,7.54-2.36,11.75-2.36,4.92,0,9.48,1.11,13.65,3.32,4.18,2.21,7.71,5.26,10.58,9.13l22.91-23.08c-5.87-5.64-12.77-10.06-20.71-13.24-7.94-3.18-16.59-4.77-25.94-4.77s-18.22,1.62-26.27,4.86c-8.05,3.24-15.05,7.78-21,13.61-1.4,1.37-2.71,2.8-3.96,4.29,2.29,1.79,4.92,2.73,7.31,2.58Z"/>
                <path class="cls-2" d="m279.53,147.17c-2.88,3.87-6.39,6.92-10.54,9.13-4.15,2.21-8.69,3.32-13.61,3.32-4.54,0-8.74-.91-12.62-2.74-3.88-1.83-7.26-4.38-10.17-7.68-1.03-1.17-1.98-2.41-2.84-3.71-9.51,5.17-18.99,10.4-28.45,15.66,2.16,3.08,4.59,5.97,7.3,8.63,5.95,5.84,12.95,10.38,21,13.61,8.05,3.24,16.81,4.86,26.27,4.86s18.11-1.58,26.11-4.73c8-3.15,14.93-7.55,20.79-13.2l-23.24-23.16Z"/>
              </g>
            </g>
            <g>
              <path class="cls-2" d="m338.84,185.77h-34.45l48.64-124.51h34.45l48.56,124.51h-34.45l-8.05-22.16h-46.65l-8.05,22.16Zm18.51-50.8h25.81l-12.95-35.53-12.87,35.53Z"/>
              <path class="cls-2" d="m559.85,185.77h-38.68l-44.82-73.88v73.88h-32.87V61.26h38.68l44.82,74.13V61.26h32.87v124.51Z"/>
              <path class="cls-2" d="m601.73,185.77h-34.45l48.64-124.51h34.45l48.56,124.51h-34.45l-8.05-22.16h-46.65l-8.05,22.16Zm18.51-50.8h25.82l-12.95-35.53-12.87,35.53Z"/>
              <path class="cls-2" d="m706.36,185.77V61.26h44.08c14.89,0,27.85,2.57,38.89,7.72,11.04,5.15,19.62,12.38,25.73,21.71,6.11,9.33,9.17,20.27,9.17,32.83s-3.06,23.44-9.17,32.79c-6.12,9.35-14.69,16.6-25.73,21.75-11.04,5.15-24,7.72-38.89,7.72h-44.08Zm32.87-28.64h12.29c8.41,0,15.52-1.3,21.33-3.9,5.81-2.6,10.22-6.4,13.24-11.41,3.02-5.01,4.52-11.11,4.52-18.3s-1.51-13.36-4.52-18.34c-3.02-4.98-7.43-8.77-13.24-11.37-5.81-2.6-12.92-3.9-21.33-3.9h-12.29v67.24Z"/>
              <path class="cls-2" d="m852.59,185.77h-34.45l48.64-124.51h34.45l48.56,124.51h-34.45l-8.05-22.16h-46.65l-8.05,22.16Zm18.51-50.8h25.81l-12.95-35.53-12.87,35.53Z"/>
              <g>
                <path class="cls-2" d="m211.94,84.1c9.56-.57,14.32-.71,23.79-.71,3.04,0,5.76,1.56,7.11,4.03.41.74.65,1.53.78,2.34,3.63-1.57,7.54-2.36,11.75-2.36,4.92,0,9.48,1.11,13.65,3.32,4.18,2.21,7.71,5.26,10.58,9.13l22.91-23.08c-5.87-5.64-12.77-10.06-20.71-13.24-7.94-3.18-16.59-4.77-25.94-4.77s-18.22,1.62-26.27,4.86c-8.05,3.24-15.05,7.78-21,13.61-1.4,1.37-2.71,2.8-3.96,4.29,2.29,1.79,4.92,2.73,7.31,2.58Z"/>
                <path class="cls-2" d="m279.53,147.17c-2.88,3.87-6.39,6.92-10.54,9.13-4.15,2.21-8.69,3.32-13.61,3.32-4.54,0-8.74-.91-12.62-2.74-3.88-1.83-7.26-4.38-10.17-7.68-1.03-1.17-1.98-2.41-2.84-3.71-9.51,5.17-18.99,10.4-28.45,15.66,2.16,3.08,4.59,5.97,7.3,8.63,5.95,5.84,12.95,10.38,21,13.61,8.05,3.24,16.81,4.86,26.27,4.86s18.11-1.58,26.11-4.73c8-3.15,14.93-7.55,20.79-13.2l-23.24-23.16Z"/>
              </g>
            </g>
          </g>
          <path class="cls-2" d="m133.16,202.77c4.04-5,6.12-7.46,10.37-12.26.14-.15.29-.28.47-.39,31.53-18.45,63.39-36.29,95.55-53.63.02-.01.04-.02.06-.03,1.27-.74,1.19-2.6-.17-3.29-2.56-1.3-3.85-1.94-6.45-3.21-7.49-3.66-9.74-11.01-5.57-17.9,4.57-7.55,6.99-11.29,12.14-18.66,2.08-2.98,0-6.81-3.84-6.8-9.42.01-14.15.16-23.66.74-8.01.49-16.11-7.16-15.98-14.94.06-3.6.11-5.41.23-9.03.05-1.52-1.76-2.27-3.23-1.42-.09.05-.17.1-.25.17-33.83,25.97-60.51,56.3-79.91,94.38-.1.21-.23.41-.39.58-5.79,6.41-8.59,9.71-14.03,16.46-8.6,9.84-7.48,25.78,2.29,34.18h0c10.35,7.59,24.46,4.71,32.37-4.95Zm18.71-54.89c23.73-21.19,48.86-39,76.83-54.44.49-.27,1.09-.09,1.36.39.27.48.09,1.09-.39,1.36-27.84,15.37-52.85,33.1-76.47,54.18-.19.17-.43.25-.67.25-.27,0-.55-.11-.75-.33-.37-.41-.33-1.04.08-1.41Zm-28.07-2.24c9.35-1.64,18.06.83,23.9,6.79,5.95,6.07,8.29,15,6.42,24.5-.09.48-.51.81-.98.81-.06,0-.13,0-.19-.02-.54-.11-.89-.63-.79-1.17,1.74-8.84-.41-17.11-5.89-22.71-5.37-5.48-13.44-7.75-22.13-6.22-.54.09-1.06-.27-1.16-.81-.09-.54.27-1.06.81-1.16Zm-18.74,37.32c5.81-7.33,8.83-10.9,15.06-17.83,4.83-5.37,12.95-5.59,17.86-.69,4.21,4.2,4.3,11.02.36,15.37-6.45,7.11-9.57,10.78-15.56,18.33-3.69,4.66-10.32,5.49-14.96,1.73-.5-.41-.75-.61-1.25-1.02-4.67-3.78-5.41-10.97-1.5-15.9Z"/>
          <g>
            <path class="cls-2" d="m141.64,105.93l14.52-70.94c.51-2.49-2.19-4.4-4.37-3.09l-16.4,9.84c-1.48.89-3.41.31-4.15-1.26L112.82,1.58c-.41-.87-1.15-1.38-1.95-1.58v153.24c8.24-17.21,18.7-32.92,30.77-47.31Z"/>
            <path class="cls-2" d="m96.03,171.42c1.84-2.29,3.38-4.18,4.84-5.93L3.69,85.78c-.12.56-.12,1.16.07,1.77l8.68,28.94c.48,1.6-.23,3.32-1.7,4.11l-8.89,4.79c-2.24,1.2-2.5,4.31-.5,5.87l55.89,43.59c1.21.94,1.67,2.56,1.14,3.99l-5.65,15.34c-.95,2.58,1.29,5.2,3.98,4.67l32.89-6.45c-.76-7.41,1.3-15.13,6.43-20.99Z"/>
            <path class="cls-2" d="m108.87,156.28V.23c-.53.26-1,.68-1.31,1.29l-19.49,38.99c-.77,1.55-2.71,2.09-4.18,1.16l-15.18-9.59c-2.17-1.37-4.92.51-4.43,3.03l13.18,68.09-27.84-28.34c-1.84-1.88-5.02-1.14-5.85,1.35l-3.42,10.25c-.56,1.68-2.29,2.69-4.03,2.34l-28.51-5.7c-1.22-.24-2.35.16-3.13.92l97.47,79.94c2.06-2.43,4.08-4.74,6.71-7.67Z"/>
          </g>
        </g>
        <path class="cls-1" d="m252.03,113.07c5.6-2.81,8.84-7.59,7.29-10.67s-7.29-3.3-12.89-.49-8.92,7.63-7.4,10.67c1.55,3.08,7.4,3.31,13,.5Z"/>
      </g>
      <g>
        <path class="cls-2" d="m241.01,211.26v17.7c0,3.15-.57,5.86-1.71,8.12-1.14,2.26-2.77,4-4.9,5.22s-4.68,1.83-7.66,1.83-5.49-.61-7.63-1.83c-2.13-1.22-3.77-2.96-4.91-5.22-1.14-2.26-1.71-4.97-1.71-8.12v-17.7h7.56v16.71c0,2.15.25,3.93.74,5.34.49,1.41,1.24,2.47,2.22,3.17.99.7,2.23,1.05,3.72,1.05s2.75-.35,3.74-1.05c.99-.7,1.73-1.76,2.22-3.17.49-1.41.74-3.19.74-5.34v-16.71h7.56Z"/>
        <path class="cls-2" d="m275.93,243.48h-8.81l-13.34-20.56v20.56h-7.56v-32.23h8.81l13.34,20.6v-20.6h7.56v32.23Z"/>
        <path class="cls-2" d="m281.14,243.48v-32.23h10.98c3.88,0,7.25.66,10.1,1.99,2.85,1.33,5.06,3.19,6.64,5.61,1.58,2.41,2.36,5.25,2.36,8.52s-.79,6.09-2.36,8.51c-1.58,2.42-3.79,4.29-6.64,5.62-2.85,1.33-6.22,1.99-10.1,1.99h-10.98Zm7.56-6.6h3.67c2.38,0,4.39-.37,6.04-1.11,1.65-.74,2.9-1.82,3.77-3.23.87-1.42,1.3-3.14,1.3-5.18s-.43-3.76-1.3-5.18c-.87-1.42-2.12-2.5-3.77-3.23-1.65-.74-3.66-1.11-6.04-1.11h-3.67v19.04Z"/>
        <path class="cls-2" d="m315.44,243.48v-32.23h21.14v6.6h-13.58v6.17h12.72v6.6h-12.72v6.27h13.79v6.6h-21.36Z"/>
        <path class="cls-2" d="m368.75,243.48h-8.36l-6.47-11.15h-4.58v11.15h-7.56v-32.23h12.61c2.69,0,4.99.42,6.9,1.25,1.9.83,3.36,2.03,4.37,3.61,1.01,1.58,1.51,3.47,1.51,5.69s-.49,4.02-1.47,5.56-2.38,2.74-4.2,3.57l7.24,12.55Zm-19.4-17.06h4.47c1.83,0,3.23-.37,4.19-1.1.96-.73,1.44-1.79,1.44-3.18s-.48-2.47-1.44-3.2c-.96-.73-2.36-1.1-4.19-1.1h-4.47v8.57Z"/>
        <path class="cls-2" d="m406.44,243.48h-7.03l-6.04-19.83-6.04,19.83h-7.03l-10.48-32.23h7.95l6.04,19.98,6.04-19.98h7.05l6.02,19.92,6.02-19.92h7.95l-10.44,32.23Z"/>
        <path class="cls-2" d="m423.45,243.48h-7.93l12.72-32.23h7.95l12.7,32.23h-7.93l-2.36-6.34h-12.78l-2.36,6.34Zm4.79-12.93h7.95l-3.97-10.57-3.97,10.57Z"/>
        <path class="cls-2" d="m464.64,243.48h-7.56v-25.63h-9.22v-6.6h26v6.6h-9.22v25.63Z"/>
        <path class="cls-2" d="m477.01,243.48v-32.23h21.14v6.6h-13.58v6.17h12.72v6.6h-12.72v6.27h13.79v6.6h-21.36Z"/>
        <path class="cls-2" d="m530.32,243.48h-8.36l-6.47-11.15h-4.58v11.15h-7.56v-32.23h12.61c2.69,0,4.99.42,6.9,1.25,1.9.83,3.36,2.03,4.37,3.61,1.01,1.58,1.51,3.47,1.51,5.69s-.49,4.02-1.47,5.56c-.98,1.55-2.38,2.74-4.2,3.57l7.24,12.55Zm-19.4-17.06h4.47c1.83,0,3.23-.37,4.19-1.1.96-.73,1.44-1.79,1.44-3.18s-.48-2.47-1.44-3.2c-.96-.73-2.36-1.1-4.19-1.1h-4.47v8.57Z"/>
        <path class="cls-2" d="m551.53,243.48h-7.56v-32.23h7.56v13.06h12.59v-13.06h7.56v32.23h-7.56v-12.55h-12.59v12.55Z"/>
        <path class="cls-2" d="m592.94,244.13c-2.46,0-4.73-.42-6.8-1.26-2.07-.84-3.87-2.01-5.4-3.52-1.53-1.51-2.72-3.28-3.57-5.32-.85-2.03-1.27-4.25-1.27-6.66s.42-4.63,1.27-6.66c.84-2.03,2.03-3.81,3.57-5.32,1.53-1.51,3.33-2.69,5.4-3.52,2.07-.84,4.34-1.26,6.82-1.26s4.71.42,6.78,1.26c2.07.84,3.86,2.01,5.38,3.52,1.52,1.51,2.7,3.28,3.54,5.32.84,2.03,1.27,4.25,1.27,6.66s-.42,4.63-1.27,6.66c-.85,2.03-2.03,3.81-3.54,5.32-1.52,1.51-3.31,2.69-5.38,3.52-2.07.84-4.34,1.26-6.8,1.26Zm0-6.6c1.32,0,2.54-.26,3.66-.77,1.12-.52,2.11-1.24,2.94-2.16s1.49-2,1.96-3.23c.46-1.23.7-2.56.7-4s-.23-2.76-.7-4c-.47-1.23-1.12-2.31-1.96-3.23s-1.82-1.64-2.94-2.16c-1.12-.52-2.35-.77-3.66-.77s-2.55.26-3.68.77-2.13,1.24-2.96,2.16-1.49,2-1.96,3.23c-.47,1.23-.7,2.56-.7,4s.23,2.76.7,4c.46,1.23,1.12,2.31,1.96,3.23s1.83,1.64,2.96,2.16,2.37.77,3.68.77Z"/>
        <path class="cls-2" d="m642.3,239.47c-1.5,1.46-3.29,2.6-5.35,3.43s-4.31,1.24-6.75,1.24-4.71-.42-6.79-1.26c-2.08-.84-3.88-2.01-5.41-3.52-1.53-1.51-2.72-3.28-3.57-5.32-.85-2.03-1.27-4.25-1.27-6.66s.42-4.63,1.27-6.66c.84-2.03,2.03-3.81,3.57-5.32,1.53-1.51,3.34-2.69,5.41-3.52,2.08-.84,4.34-1.26,6.79-1.26s4.65.41,6.7,1.24c2.05.82,3.83,1.97,5.35,3.45l-5.29,5.31c-.82-1.06-1.82-1.89-3.01-2.49-1.19-.6-2.49-.9-3.89-.9-1.3,0-2.51.26-3.63.77s-2.09,1.23-2.92,2.15c-.83.92-1.48,1.99-1.93,3.22-.46,1.23-.69,2.56-.69,4s.23,2.8.69,4.03c.46,1.22,1.1,2.3,1.93,3.22.83.92,1.8,1.64,2.92,2.16s2.33.77,3.63.77c1.4,0,2.7-.3,3.88-.9s2.19-1.43,3.02-2.49l5.33,5.33Z"/>
        <path class="cls-2" d="m653.95,243.48h-7.56v-32.23h7.56v14.65c.7-1.02,1.37-1.97,2.01-2.85.64-.88,1.18-1.59,1.62-2.14l7.67-9.67h8.92l-11.86,14.89,14.07,17.34h-9.78l-9.13-11.26-3.52,4.45v6.81Z"/>
        <path class="cls-2" d="m679.27,243.48v-32.23h21.14v6.6h-13.58v6.17h12.72v6.6h-12.72v6.27h13.79v6.6h-21.36Z"/>
        <path class="cls-2" d="m722.74,243.48h-7.56v-13.77l-12.1-18.46h9.2l6.64,11.75,6.72-11.75h9.2l-12.1,18.48v13.75Z"/>
      </g>
    </g>
  </g>
</svg>