<?xml version="1.0" encoding="UTF-8"?>
<svg id="Labels" xmlns="http://www.w3.org/2000/svg" viewBox="0 0 282.12 47.59">
  <defs>
    <style>
      .cls-1 {
        fill: #2d9ff7;
        fill-rule: evenodd;
      }

      .cls-1, .cls-2, .cls-3 {
        stroke-width: 0px;
      }

      .cls-2 {
        fill: #fb0000;
      }

      .cls-3 {
        fill: #fff;
      }
    </style>
  </defs>
  <g>
    <g>
      <path class="cls-3" d="m88.71,27.59c0,1.75-.18,3.2-.54,4.32-.35,1.08-.88,1.89-1.58,2.4-.7.51-1.62.77-2.74.77s-2.04-.26-2.74-.77c-.7-.51-1.23-1.32-1.58-2.4-.36-1.11-.54-2.57-.54-4.32v-14.8h-8.12v15.82c0,2.8.52,5.25,1.55,7.27,1.03,2.04,2.55,3.63,4.49,4.72,1.93,1.09,4.27,1.64,6.94,1.64s5.02-.55,6.95-1.64c1.94-1.09,3.44-2.68,4.48-4.72,1.03-2.03,1.55-4.47,1.55-7.27v-15.82h-8.12v14.8Z"/>
      <path class="cls-3" d="m127.86,24.49h-13.95v6.31h6.65c-.19.63-.43,1.2-.72,1.71-.35.61-.79,1.12-1.3,1.54-.5.41-1.09.73-1.75.94-.67.21-1.42.32-2.23.32-1.09,0-2.1-.19-2.98-.58-.88-.38-1.66-.93-2.3-1.62-.64-.7-1.15-1.55-1.49-2.53-.35-.99-.53-2.1-.53-3.31s.17-2.26.5-3.2c.33-.93.8-1.74,1.4-2.41.6-.66,1.32-1.17,2.16-1.52.84-.35,1.79-.53,2.83-.53s2.1.19,3.04.56c.93.37,1.73.89,2.37,1.56l.24.25,5.29-5.29-.27-.23c-1.49-1.28-3.2-2.27-5.07-2.96-1.87-.69-3.82-1.04-5.8-1.04-2.1,0-4.09.38-5.89,1.14-1.81.75-3.41,1.82-4.76,3.18-1.36,1.35-2.42,2.95-3.18,4.75-.75,1.8-1.13,3.78-1.13,5.87s.39,4.12,1.16,5.94c.77,1.83,1.87,3.44,3.25,4.8,1.39,1.36,3.02,2.43,4.87,3.19,1.85.76,3.87,1.14,6.01,1.14s3.95-.36,5.63-1.07c1.69-.71,3.16-1.74,4.38-3.04s2.17-2.89,2.83-4.69c.66-1.8.99-3.82.99-5.99l-.23-3.18Z"/>
      <path class="cls-3" d="m147.02,12.79h-8.26l-11.5,29.71h8.53l2.05-5.85h10.11l2.27,5.85h8.53l-11.71-29.71Zm-6.58,16.7l2.44-6.74,2.46,6.74h-4.9Z"/>
      <g>
        <path class="cls-3" d="m68.37,16.4c-1.36-1.3-2.97-2.34-4.8-3.07-1.83-.73-3.85-1.11-6-1.11s-4.22.38-6.08,1.13c-1.86.75-3.5,1.81-4.87,3.16-.5.49-.95,1.01-1.37,1.56.03.03.06.06.09.09.06.06.13.12.2.18.06.05.13.11.21.16.28.19.57.32.85.39h0s0,0,0,0c.08.02.16.04.25.05.08.01.16.02.24.02.04,0,.07,0,.11,0,1.73-.11,2.74-.14,4.13-.16.15,0,.29,0,.44,0,.02,0,.04,0,.06,0,.22,0,.45,0,.69,0,.58,0,1.12.25,1.47.68.14.16.24.35.31.55.02.05.03.1.04.15.12-.07.25-.13.37-.19.83-.39,1.74-.59,2.72-.59,1.05,0,2.04.24,2.94.71.9.47,1.67,1.14,2.29,1.97l.23.31,5.71-5.75-.25-.23Z"/>
        <path class="cls-3" d="m62.89,32.08l-.23.31c-.62.84-1.39,1.5-2.28,1.98-.89.47-1.87.71-2.93.71-.97,0-1.89-.2-2.72-.59-.83-.39-1.57-.95-2.2-1.66-.13-.15-.26-.31-.38-.47l-.07.04-.29.16h0s0,0,0,0c-.09.05-.19.1-.28.15-.18.1-.36.2-.54.29-.18.1-.36.19-.54.29l-.14.08-.15.08c-1.23.67-2.22,1.22-3.14,1.73h0s0,0,0,0c-.1.05-.18.1-.26.14h-.01s-.01.01-.01.01c-.39.21-.74.41-1.07.59h-.01s-.01.01-.01.01c-.09.05-.18.1-.27.15h0s0,0,0,0c-.07.04-.14.08-.21.12.45.61.95,1.19,1.49,1.72,1.37,1.35,3.01,2.41,4.87,3.16,1.86.75,3.9,1.13,6.08,1.13s4.2-.37,6.04-1.09c1.85-.73,3.47-1.76,4.82-3.06l.25-.24-5.78-5.76Z"/>
      </g>
    </g>
    <g>
      <path class="cls-2" d="m34.82,8.05s0,.05-.01.07l-3.24,15.81c-2.69,3.21-5.02,6.71-6.86,10.55V.32c.18.04.34.16.43.35l4.11,8.67c.06.12.14.21.25.28.13.08.28.11.43.09.08-.01.17-.04.25-.09l3.66-2.19s.06-.03.08-.04c.08-.04.17-.05.25-.05.11,0,.21.03.3.08.04.02.07.04.1.07.02.01.03.03.05.04.02.01.03.03.04.04.04.04.08.1.1.16h0c.04.1.06.21.05.33Z"/>
      <path class="cls-2" d="m19.97,43.21l-7.33,1.44c-.05.01-.1.02-.16.02-.53,0-.93-.53-.73-1.06l1.26-3.42c.12-.32.02-.68-.25-.89L.3,29.58c-.45-.35-.39-1.04.11-1.31l1.98-1.07c.33-.18.49-.56.38-.92l-1.94-6.45c-.04-.14-.04-.27-.01-.4l21.66,17.77c-.32.39-.67.81-1.08,1.32-1.14,1.3-1.61,3.03-1.44,4.68Z"/>
      <path class="cls-2" d="m22.77,36.87L1.04,19.05c.14-.14.33-.22.54-.22.05,0,.1,0,.16.02l6.35,1.27c.05.01.1.02.16.02.08,0,.16-.01.24-.04.04-.01.08-.03.11-.05.04-.02.07-.04.1-.06.03-.02.06-.05.09-.08.08-.08.15-.19.19-.31l.76-2.28s.03-.08.05-.12c.02-.04.04-.07.07-.1.01-.02.03-.03.04-.05.02-.02.03-.03.04-.04.03-.03.06-.05.09-.08.03-.02.07-.04.1-.06.11-.05.23-.08.35-.08.2,0,.4.07.56.23l6.21,6.32-2.94-15.18c-.08-.43.26-.78.64-.78.12,0,.24.03.35.1l3.38,2.14c.11.07.23.1.35.1.24,0,.47-.13.58-.36L23.98.66c.07-.14.17-.23.29-.29v34.79c-.59.65-1.04,1.17-1.49,1.71Z"/>
    </g>
    <g>
      <path class="cls-2" d="m24.69,35.77h.02v-.02s-.02.02-.02.02Z"/>
      <path class="cls-2" d="m53.37,30.01c-.37-.19-.63-.32-.92-.46-.12-.06-.25-.12-.41-.2-.04-.02-.07-.04-.11-.05-.61-.3-1.06-.7-1.35-1.17-.27-.44-.39-.94-.35-1.46.03-.45.18-.91.45-1.36.02-.04.04-.08.07-.11.98-1.61,1.52-2.44,2.64-4.05.1-.15.16-.31.18-.47.01-.13,0-.26-.04-.38-.04-.1-.09-.21-.16-.29-.18-.22-.47-.37-.83-.37-.24,0-.47,0-.68,0-.17,0-.33,0-.49,0-1.4.02-2.41.06-4.1.16-.17.01-.34,0-.51-.02-.12-.02-.24-.04-.36-.07-.4-.1-.78-.28-1.13-.51-.09-.06-.18-.13-.27-.2-.09-.07-.17-.15-.25-.23-.32-.31-.58-.67-.76-1.06-.06-.12-.11-.24-.14-.37-.09-.29-.14-.58-.14-.88.01-.8.02-1.21.05-2.01.01-.34-.39-.51-.72-.32-.02.01-.04.02-.06.04-4.49,3.45-8.42,7.24-11.77,11.54-2.28,2.92-4.29,6.07-6.04,9.5-.02.05-.05.09-.09.13-.13.14-.25.28-.37.41v.02h-.02c-.52.58-.94,1.06-1.36,1.56-.09.11-.19.23-.29.34-.33.39-.68.82-1.09,1.34-.99,1.13-1.4,2.63-1.27,4.06.12,1.35.72,2.65,1.78,3.56,2.31,1.69,5.45,1.05,7.22-1.1.9-1.12,1.36-1.66,2.31-2.73.03-.03.07-.06.1-.08,3.71-2.17,7.43-4.3,11.18-6.4.1-.06.19-.11.29-.16.36-.2.72-.4,1.07-.6.1-.06.19-.11.29-.16.1-.06.2-.11.29-.16.36-.2.72-.4,1.07-.6.1-.06.2-.11.29-.16,1.05-.58,2.09-1.15,3.14-1.73.1-.05.19-.11.29-.16.36-.2.72-.39,1.08-.59.1-.05.2-.11.29-.16.1-.05.2-.11.29-.16.36-.19.72-.39,1.08-.58.1-.05.2-.1.29-.16.11-.06.22-.12.33-.18,0,0,0,0,.01,0,.28-.16.27-.58-.04-.74Zm-22.54,10.4c-1.44,1.58-2.13,2.4-3.47,4.09-.82,1.04-2.3,1.22-3.33.39-.11-.09-.17-.14-.28-.23-.61-.49-.92-1.25-.89-2.01.02-.54.2-1.08.56-1.54.61-.77,1.08-1.35,1.55-1.91.54-.64,1.07-1.24,1.81-2.06.61-.68,1.46-.99,2.29-.93.62.05,1.22.31,1.69.78.94.94.96,2.46.08,3.43Zm3.52-.64c-.02.11-.11.18-.22.18-.01,0-.03,0-.04,0-.12-.02-.2-.14-.18-.26.33-1.68.04-3.27-.83-4.49-.78-1.1-1.99-1.81-3.39-2.01h0c-.64-.09-1.32-.08-2.02.05-.01,0-.02,0-.04,0-.11,0-.2-.08-.22-.19-.02-.12.06-.24.18-.26.75-.13,1.48-.15,2.16-.05h0c1.53.22,2.84,1,3.7,2.2.93,1.32,1.26,3.03.9,4.83Zm10.23-14.21c-.12.08-.24.16-.36.24-.43.29-.86.58-1.28.88-.11.08-.23.16-.34.24-.11.08-.23.16-.34.24-.41.29-.81.58-1.21.88-.11.08-.22.16-.32.24-2.26,1.67-4.44,3.46-6.58,5.36-.04.04-.1.06-.15.06-.06,0-.12-.03-.17-.08-.08-.09-.07-.23.02-.31,2.22-1.98,4.5-3.83,6.85-5.57.11-.08.22-.16.33-.25.41-.3.82-.59,1.24-.88.11-.08.23-.16.35-.24.12-.08.23-.16.35-.24.44-.31.88-.6,1.33-.9.12-.08.25-.16.37-.25,1.61-1.06,3.27-2.08,4.97-3.05.19-.11.39-.23.59-.33.25-.14.51-.29.76-.43.11-.06.25-.02.3.09.06.11.02.24-.09.3-.47.26-.95.53-1.41.8-.17.1-.35.2-.52.3-1.6.93-3.16,1.9-4.68,2.91Z"/>
    </g>
    <path class="cls-1" d="m58.91,4.16c1.1-.55,1.54-1.88,1-2.96s-1.86-1.51-2.96-.96-1.56,1.89-1.02,2.95,1.89,1.52,2.99.96Z"/>
    <path class="cls-1" d="m56.66,7.01c-1.39,1.1-1.61,2-2.73,2.76-1.81,1.21-2.8-.3-1.93-1.35.58-.72.98-.84,1.54-1.26,2.74-2.05.94-6.15-2.88-5.2-7.43,1.86-15.57,10.99-16.97,19.45,0,.04,0,.07-.01.11,2.59-2.82,5.5-5.47,8.81-8.01.04-.03.08-.06.11-.08h.01s.01-.01.01-.01c.22-.13.46-.19.71-.19.36,0,.69.14.93.38.23.23.35.55.33.88-.03.78-.04,1.17-.05,1.98.31-.37.64-.72.98-1.06,1.52-1.49,3.33-2.67,5.38-3.49,2.04-.82,4.28-1.24,6.66-1.24,1.98,0,3.86.29,5.6.87,2.07-3.58-1.76-8.26-6.52-4.52Z"/>
    <path class="cls-1" d="m56.29,26.95c1.25-.63,1.97-1.69,1.63-2.38s-1.62-.74-2.87-.11-1.99,1.7-1.65,2.38,1.65.74,2.9.11Z"/>
  </g>
  <g>
    <path class="cls-3" d="m168.59,21.24h-2.04l3.28-8.31h2.05l3.27,8.31h-2.04l-.61-1.63h-3.3l-.61,1.63Zm1.24-3.34h2.05l-1.03-2.73-1.03,2.73Z"/>
    <path class="cls-3" d="m175.59,20.32l.92-1.49c.26.21.51.38.75.51.24.13.47.23.7.29.23.06.46.09.7.09.26,0,.48-.03.67-.1.19-.07.33-.17.43-.29.1-.13.15-.28.15-.45,0-.2-.07-.38-.2-.52-.14-.14-.32-.27-.54-.38-.22-.11-.47-.22-.73-.32-.27-.11-.54-.23-.81-.36s-.53-.29-.76-.47c-.23-.19-.41-.41-.56-.68-.14-.27-.21-.59-.21-.97,0-.5.13-.93.38-1.29s.6-.64,1.04-.83c.44-.19.94-.29,1.5-.29.41,0,.83.05,1.27.16.44.11.89.27,1.33.5l-.76,1.57c-.27-.16-.55-.29-.86-.39-.31-.09-.6-.14-.86-.14-.21,0-.39.03-.55.09s-.28.15-.37.26c-.09.11-.13.24-.13.39,0,.19.07.35.2.49.13.14.31.26.53.37.22.11.45.22.71.34.27.11.54.24.82.38.28.14.54.31.77.5.23.19.42.42.57.68.14.27.21.59.21.96,0,.49-.13.92-.4,1.3s-.63.67-1.11.87c-.47.21-1.03.31-1.65.31-.58,0-1.14-.09-1.67-.28-.53-.19-1.03-.46-1.48-.81Z"/>
    <path class="cls-3" d="m182.47,20.32l.92-1.49c.26.21.51.38.75.51.24.13.47.23.7.29.23.06.46.09.7.09.26,0,.48-.03.67-.1.19-.07.33-.17.43-.29.1-.13.15-.28.15-.45,0-.2-.07-.38-.2-.52-.14-.14-.32-.27-.54-.38-.22-.11-.47-.22-.73-.32-.27-.11-.54-.23-.81-.36s-.53-.29-.76-.47c-.23-.19-.41-.41-.56-.68-.14-.27-.21-.59-.21-.97,0-.5.13-.93.38-1.29s.6-.64,1.04-.83c.44-.19.94-.29,1.5-.29.41,0,.83.05,1.27.16.44.11.89.27,1.33.5l-.76,1.57c-.27-.16-.55-.29-.86-.39-.31-.09-.6-.14-.86-.14-.21,0-.39.03-.55.09s-.28.15-.37.26c-.09.11-.13.24-.13.39,0,.19.07.35.2.49.13.14.31.26.53.37.22.11.45.22.71.34.27.11.54.24.82.38.28.14.54.31.77.5.23.19.42.42.57.68.14.27.21.59.21.96,0,.49-.13.92-.4,1.3s-.63.67-1.11.87c-.47.21-1.03.31-1.65.31-.58,0-1.14-.09-1.67-.28-.53-.19-1.03-.46-1.48-.81Z"/>
    <path class="cls-3" d="m193.98,21.41c-.64,0-1.22-.11-1.75-.32-.53-.22-1-.52-1.39-.91-.4-.39-.7-.85-.92-1.37-.22-.52-.33-1.1-.33-1.72s.11-1.19.33-1.72c.22-.52.52-.98.92-1.37.4-.39.86-.69,1.39-.91.53-.22,1.12-.32,1.76-.32s1.21.11,1.75.32,1,.52,1.39.91c.39.39.7.85.91,1.37.22.52.33,1.1.33,1.72s-.11,1.19-.33,1.72c-.22.52-.52.98-.91,1.37-.39.39-.85.69-1.39.91s-1.12.32-1.75.32Zm0-1.7c.34,0,.65-.07.94-.2.29-.13.54-.32.76-.56.22-.24.38-.52.5-.83.12-.32.18-.66.18-1.03s-.06-.71-.18-1.03c-.12-.32-.29-.6-.5-.83-.22-.24-.47-.42-.76-.56-.29-.13-.6-.2-.94-.2s-.66.07-.95.2c-.29.13-.55.32-.76.56-.22.24-.38.52-.5.83-.12.32-.18.66-.18,1.03s.06.71.18,1.03c.12.32.29.6.5.83.22.24.47.42.76.56.29.13.61.2.95.2Z"/>
    <path class="cls-3" d="m206.71,20.21c-.39.38-.85.67-1.38.88-.53.21-1.11.32-1.74.32s-1.22-.11-1.75-.32-1-.52-1.4-.91c-.4-.39-.7-.85-.92-1.37-.22-.52-.33-1.1-.33-1.72s.11-1.19.33-1.72c.22-.52.52-.98.92-1.37.4-.39.86-.69,1.4-.91s1.12-.32,1.75-.32,1.2.11,1.73.32c.53.21.99.51,1.38.89l-1.36,1.37c-.21-.27-.47-.49-.78-.64-.31-.16-.64-.23-1-.23-.34,0-.65.07-.94.2-.29.13-.54.32-.75.55-.21.24-.38.51-.5.83-.12.32-.18.66-.18,1.03s.06.72.18,1.04.28.59.5.83c.21.24.47.42.75.56s.6.2.94.2c.36,0,.7-.08,1-.23.3-.16.56-.37.78-.64l1.37,1.37Z"/>
    <path class="cls-3" d="m209.72,21.24h-1.95v-8.31h1.95v8.31Z"/>
    <path class="cls-3" d="m212.59,21.24h-2.04l3.28-8.31h2.05l3.27,8.31h-2.04l-.61-1.63h-3.3l-.61,1.63Zm1.24-3.34h2.05l-1.03-2.73-1.03,2.73Z"/>
    <path class="cls-3" d="m223.21,21.24h-1.95v-6.61h-2.38v-1.7h6.7v1.7h-2.38v6.61Z"/>
    <path class="cls-3" d="m228.35,21.24h-1.95v-8.31h1.95v8.31Z"/>
    <path class="cls-3" d="m233.83,21.41c-.64,0-1.22-.11-1.75-.32-.53-.22-1-.52-1.39-.91-.4-.39-.7-.85-.92-1.37-.22-.52-.33-1.1-.33-1.72s.11-1.19.33-1.72c.22-.52.52-.98.92-1.37.4-.39.86-.69,1.39-.91.53-.22,1.12-.32,1.76-.32s1.21.11,1.75.32c.53.22,1,.52,1.39.91.39.39.7.85.91,1.37.22.52.33,1.1.33,1.72s-.11,1.19-.33,1.72c-.22.52-.52.98-.91,1.37-.39.39-.85.69-1.39.91-.53.22-1.12.32-1.75.32Zm0-1.7c.34,0,.65-.07.94-.2.29-.13.54-.32.76-.56.22-.24.38-.52.5-.83.12-.32.18-.66.18-1.03s-.06-.71-.18-1.03c-.12-.32-.29-.6-.5-.83-.22-.24-.47-.42-.76-.56-.29-.13-.6-.2-.94-.2s-.66.07-.95.2c-.29.13-.55.32-.76.56-.22.24-.38.52-.5.83-.12.32-.18.66-.18,1.03s.06.71.18,1.03c.12.32.29.6.5.83.22.24.47.42.76.56s.61.2.95.2Z"/>
    <path class="cls-3" d="m246.97,21.24h-2.27l-3.44-5.3v5.3h-1.95v-8.31h2.27l3.44,5.31v-5.31h1.95v8.31Z"/>
    <path class="cls-3" d="m174.1,30.71c-.39.38-.85.67-1.38.88-.53.21-1.11.32-1.74.32s-1.22-.11-1.75-.32-1-.52-1.4-.91c-.4-.39-.7-.85-.92-1.37-.22-.52-.33-1.1-.33-1.72s.11-1.19.33-1.72c.22-.52.52-.98.92-1.37.4-.39.86-.69,1.4-.91s1.12-.32,1.75-.32,1.2.11,1.73.32c.53.21.99.51,1.38.89l-1.36,1.37c-.21-.27-.47-.49-.78-.64-.31-.16-.64-.23-1-.23-.34,0-.65.07-.94.2-.29.13-.54.32-.75.55-.21.24-.38.51-.5.83-.12.32-.18.66-.18,1.03s.06.72.18,1.04.28.59.5.83c.21.24.47.42.75.56s.6.2.94.2c.36,0,.7-.08,1-.23.3-.16.56-.37.78-.64l1.37,1.37Z"/>
    <path class="cls-3" d="m176.57,31.75h-2.04l3.28-8.31h2.05l3.27,8.31h-2.04l-.61-1.63h-3.3l-.61,1.63Zm1.24-3.34h2.05l-1.03-2.73-1.03,2.73Z"/>
    <path class="cls-3" d="m191.62,31.75h-2.27l-3.44-5.3v5.3h-1.95v-8.31h2.27l3.44,5.31v-5.31h1.95v8.31Z"/>
    <path class="cls-3" d="m194.49,31.75h-2.04l3.28-8.31h2.05l3.27,8.31h-2.04l-.61-1.63h-3.3l-.61,1.63Zm1.24-3.34h2.05l-1.03-2.73-1.03,2.73Z"/>
    <path class="cls-3" d="m201.87,31.75v-8.31h2.83c1,0,1.87.17,2.6.51.74.34,1.31.82,1.71,1.45.41.62.61,1.35.61,2.2s-.2,1.57-.61,2.19c-.41.62-.98,1.11-1.71,1.45-.74.34-1.6.51-2.6.51h-2.83Zm1.95-1.7h.95c.61,0,1.13-.09,1.56-.29.42-.19.75-.47.97-.83.22-.37.34-.81.34-1.34s-.11-.97-.34-1.34c-.22-.37-.55-.64-.97-.83-.42-.19-.94-.29-1.56-.29h-.95v4.91Z"/>
    <path class="cls-3" d="m212.67,31.75h-1.95v-8.31h1.95v8.31Z"/>
    <path class="cls-3" d="m214.01,31.75v-8.31h5.45v1.7h-3.5v1.59h3.28v1.7h-3.28v1.62h3.56v1.7h-5.51Z"/>
    <path class="cls-3" d="m228.47,31.75h-2.27l-3.44-5.3v5.3h-1.95v-8.31h2.27l3.44,5.31v-5.31h1.95v8.31Z"/>
    <path class="cls-3" d="m237.48,31.75h-2.27l-3.44-5.3v5.3h-1.95v-8.31h2.27l3.44,5.31v-5.31h1.95v8.31Z"/>
    <path class="cls-3" d="m238.82,31.75v-8.31h5.45v1.7h-3.5v1.59h3.28v1.7h-3.28v1.62h3.56v1.7h-5.51Z"/>
    <path class="cls-3" d="m248.23,31.75v-8.31h2.83c1,0,1.87.17,2.6.51.74.34,1.31.82,1.71,1.45.41.62.61,1.35.61,2.2s-.2,1.57-.61,2.19-.98,1.11-1.71,1.45c-.74.34-1.6.51-2.6.51h-2.83Zm1.95-1.7h.95c.61,0,1.13-.09,1.56-.29.42-.19.75-.47.97-.83.22-.37.34-.81.34-1.34s-.11-.97-.34-1.34c-.22-.37-.55-.64-.97-.83-.42-.19-.94-.29-1.56-.29h-.95v4.91Z"/>
    <path class="cls-3" d="m257.08,31.75v-8.31h5.45v1.7h-3.5v1.59h3.28v1.7h-3.28v1.62h3.56v1.7h-5.51Z"/>
    <path class="cls-3" d="m263.43,30.82l.92-1.49c.26.21.51.38.75.51.24.13.47.23.7.29.23.06.46.09.7.09.26,0,.48-.03.67-.1.19-.07.33-.17.43-.29.1-.13.15-.28.15-.45,0-.2-.07-.38-.21-.52-.14-.14-.32-.27-.54-.38-.22-.11-.47-.22-.73-.32-.27-.11-.54-.23-.81-.36-.28-.13-.53-.29-.76-.47-.23-.19-.41-.41-.56-.68s-.21-.59-.21-.97c0-.5.13-.93.38-1.29.25-.36.6-.64,1.04-.83.44-.19.94-.29,1.5-.29.41,0,.83.05,1.27.16.44.11.89.27,1.33.5l-.76,1.57c-.27-.16-.55-.29-.86-.39s-.6-.14-.86-.14c-.21,0-.39.03-.55.09-.16.06-.28.15-.37.26-.09.11-.13.24-.13.39,0,.19.07.35.2.49.13.14.31.26.53.37.22.11.45.22.71.34.27.11.54.24.82.38.28.14.54.31.77.5.23.19.42.42.57.68s.21.59.21.96c0,.49-.13.92-.4,1.3-.26.37-.63.67-1.11.87-.47.21-1.03.31-1.65.31-.58,0-1.14-.09-1.67-.28-.53-.19-1.03-.46-1.48-.81Z"/>
    <path class="cls-3" d="m166.56,44.25l-.1-1.7c.64,0,1.11-.15,1.42-.45.31-.3.46-.75.46-1.36v-6.79h1.95v6.78c0,.84-.13,1.52-.38,2.04s-.65.89-1.2,1.13-1.27.35-2.16.35Z"/>
    <path class="cls-3" d="m171.64,42.26v-8.31h5.45v1.7h-3.5v1.59h3.28v1.7h-3.28v1.62h3.56v1.7h-5.51Z"/>
    <path class="cls-3" d="m185.68,33.94v4.57c0,.81-.15,1.51-.44,2.09s-.71,1.03-1.26,1.35-1.21.47-1.98.47-1.42-.16-1.97-.47c-.55-.31-.97-.76-1.27-1.35s-.44-1.28-.44-2.09v-4.57h1.95v4.31c0,.55.06,1.01.19,1.38.13.36.32.64.57.82.25.18.57.27.96.27s.71-.09.96-.27.45-.45.57-.82c.13-.36.19-.82.19-1.38v-4.31h1.95Z"/>
    <path class="cls-3" d="m195.22,42.26h-2.45l-1.97-2.81-1.97,2.81h-2.31l3.16-4.25-2.91-4.06h2.45l1.71,2.45,1.66-2.45h2.4l-2.93,4,3.16,4.31Z"/>
    <path class="cls-3" d="m198.28,41.33l.92-1.49c.26.21.51.38.75.51.24.13.47.23.7.29.23.06.46.09.7.09.26,0,.48-.03.67-.1.19-.07.33-.17.43-.29.1-.13.15-.28.15-.45,0-.2-.07-.38-.2-.52-.14-.14-.32-.27-.54-.38-.22-.11-.47-.22-.73-.32-.27-.11-.54-.23-.81-.36s-.53-.29-.76-.47c-.23-.19-.41-.41-.56-.68-.14-.27-.21-.59-.21-.97,0-.5.13-.93.38-1.29s.6-.64,1.04-.83c.44-.19.94-.29,1.5-.29.41,0,.83.05,1.27.16.44.11.89.27,1.33.5l-.76,1.57c-.27-.16-.55-.29-.86-.39-.31-.09-.6-.14-.86-.14-.21,0-.39.03-.55.09s-.28.15-.37.26c-.09.11-.13.24-.13.39,0,.19.07.35.2.49.13.14.31.26.53.37.22.11.45.22.71.34.27.11.54.24.82.38.28.14.54.31.77.5.23.19.42.42.57.68.14.27.21.59.21.96,0,.49-.13.92-.4,1.3s-.63.67-1.11.87c-.47.21-1.03.31-1.65.31-.58,0-1.14-.09-1.67-.28-.53-.19-1.03-.46-1.48-.81Z"/>
    <path class="cls-3" d="m209.8,42.42c-.64,0-1.22-.11-1.75-.32-.53-.22-1-.52-1.39-.91-.4-.39-.7-.85-.92-1.37-.22-.52-.33-1.1-.33-1.72s.11-1.19.33-1.72c.22-.52.52-.98.92-1.37.4-.39.86-.69,1.39-.91.53-.22,1.12-.32,1.76-.32s1.21.11,1.75.32,1,.52,1.39.91c.39.39.7.85.91,1.37.22.52.33,1.1.33,1.72s-.11,1.19-.33,1.72c-.22.52-.52.98-.91,1.37-.39.39-.85.69-1.39.91s-1.12.32-1.75.32Zm0-1.7c.34,0,.65-.07.94-.2.29-.13.54-.32.76-.56.22-.24.38-.52.5-.83.12-.32.18-.66.18-1.03s-.06-.71-.18-1.03c-.12-.32-.29-.6-.5-.83-.22-.24-.47-.42-.76-.56-.29-.13-.6-.2-.94-.2s-.66.07-.95.2c-.29.13-.55.32-.76.56-.22.24-.38.52-.5.83-.12.32-.18.66-.18,1.03s.06.71.18,1.03c.12.32.29.6.5.83.22.24.47.42.76.56.29.13.61.2.95.2Z"/>
    <path class="cls-3" d="m222.63,33.94v4.57c0,.81-.15,1.51-.44,2.09s-.71,1.03-1.26,1.35-1.21.47-1.98.47-1.42-.16-1.97-.47c-.55-.31-.97-.76-1.27-1.35s-.44-1.28-.44-2.09v-4.57h1.95v4.31c0,.55.06,1.01.19,1.38.13.36.32.64.57.82.25.18.57.27.96.27s.71-.09.96-.27.45-.45.57-.82c.13-.36.19-.82.19-1.38v-4.31h1.95Z"/>
    <path class="cls-3" d="m223.58,41.33l.92-1.49c.26.21.51.38.75.51.24.13.47.23.7.29.23.06.46.09.7.09.26,0,.48-.03.67-.1.19-.07.33-.17.43-.29.1-.13.15-.28.15-.45,0-.2-.07-.38-.21-.52-.14-.14-.32-.27-.54-.38-.22-.11-.47-.22-.73-.32-.27-.11-.54-.23-.81-.36-.28-.13-.53-.29-.76-.47-.23-.19-.41-.41-.56-.68s-.21-.59-.21-.97c0-.5.13-.93.38-1.29.25-.36.6-.64,1.04-.83.44-.19.94-.29,1.5-.29.41,0,.83.05,1.27.16.44.11.89.27,1.33.5l-.76,1.57c-.27-.16-.55-.29-.86-.39s-.6-.14-.86-.14c-.21,0-.39.03-.55.09-.16.06-.28.15-.37.26-.09.11-.13.24-.13.39,0,.19.07.35.2.49.13.14.31.26.53.37.22.11.45.22.71.34.27.11.54.24.82.38.28.14.54.31.77.5.23.19.42.42.57.68s.21.59.21.96c0,.49-.13.92-.4,1.3-.26.37-.63.67-1.11.87-.47.21-1.03.31-1.65.31-.58,0-1.14-.09-1.67-.28-.53-.19-1.03-.46-1.48-.81Z"/>
    <path class="cls-3" d="m235.39,40.17h-4.43v-1.39h4.43v1.39Z"/>
    <path class="cls-3" d="m245.79,42.26h-1.95v-5.52l-1.85,4.12h-1.47l-1.84-4.11v5.5h-1.95v-8.31h2.47l2.06,4.73,2.06-4.73h2.47v8.31Z"/>
    <path class="cls-3" d="m248.66,42.26h-2.04l3.28-8.31h2.05l3.27,8.31h-2.04l-.61-1.63h-3.3l-.61,1.63Zm1.24-3.34h2.05l-1.02-2.73-1.03,2.73Z"/>
    <path class="cls-3" d="m263,42.26h-2.16l-1.67-2.88h-1.18v2.88h-1.95v-8.31h3.25c.69,0,1.29.11,1.78.32.49.21.87.52,1.13.93s.39.9.39,1.47-.13,1.04-.38,1.44c-.25.4-.61.71-1.08.92l1.87,3.24Zm-5-4.4h1.15c.47,0,.83-.09,1.08-.28.25-.19.37-.46.37-.82s-.12-.64-.37-.83-.61-.28-1.08-.28h-1.15v2.21Z"/>
    <path class="cls-3" d="m265.85,42.26h-1.95v-8.31h1.95v8.31Z"/>
    <path class="cls-3" d="m274.86,42.26h-2.27l-3.44-5.3v5.3h-1.95v-8.31h2.27l3.44,5.31v-5.31h1.95v8.31Z"/>
    <path class="cls-3" d="m275.81,41.33l.92-1.49c.26.21.51.38.75.51.24.13.47.23.7.29.23.06.46.09.7.09.26,0,.48-.03.67-.1.19-.07.33-.17.43-.29.1-.13.15-.28.15-.45,0-.2-.07-.38-.21-.52-.14-.14-.32-.27-.54-.38-.22-.11-.47-.22-.73-.32-.27-.11-.54-.23-.81-.36-.28-.13-.53-.29-.76-.47-.23-.19-.41-.41-.56-.68s-.21-.59-.21-.97c0-.5.13-.93.38-1.29.25-.36.6-.64,1.04-.83.44-.19.94-.29,1.5-.29.41,0,.83.05,1.27.16.44.11.89.27,1.33.5l-.76,1.57c-.27-.16-.55-.29-.86-.39s-.6-.14-.86-.14c-.21,0-.39.03-.55.09-.16.06-.28.15-.37.26-.09.11-.13.24-.13.39,0,.19.07.35.2.49.13.14.31.26.53.37.22.11.45.22.71.34.27.11.54.24.82.38.28.14.54.31.77.5.23.19.42.42.57.68s.21.59.21.96c0,.49-.13.92-.4,1.3-.26.37-.63.67-1.11.87-.47.21-1.03.31-1.65.31-.58,0-1.14-.09-1.67-.28-.53-.19-1.03-.46-1.48-.81Z"/>
  </g>
</svg>