<?xml version="1.0" encoding="UTF-8"?>
<svg id="Calque_2" data-name="Calque 2" xmlns="http://www.w3.org/2000/svg" viewBox="0 0 949.79 249">
  <defs>
    <style>
      .cls-1 {
        fill: #2d9ff7;
        fill-rule: evenodd;
      }

      .cls-1, .cls-2, .cls-3 {
        stroke-width: 0px;
      }

      .cls-2 {
        fill: #fff;
      }

      .cls-3 {
        fill: red;
      }
    </style>
  </defs>
  <g id="Calque_1-2" data-name="Calque 1">
    <g>
      <g>
        <g>
          <path class="cls-1" d="m260.28,22.21c4.93-2.47,6.9-8.43,4.47-13.28-2.4-4.78-8.35-6.76-13.28-4.29-4.93,2.47-6.98,8.47-4.58,13.25,2.43,4.85,8.46,6.8,13.39,4.33Z"/>
          <path class="cls-1" d="m197.26,58.87c1.73.86,2.7,2.49,2.63,4.35-.15,3.61-.2,5.41-.28,9.01-.03,1.35.3,2.76.91,4.13,1.15-1.31,2.32-2.58,3.52-3.76,6.54-6.41,14.32-11.46,23.13-15.01,8.79-3.53,18.45-5.32,28.7-5.32,8.19,0,15.99,1.17,23.26,3.45,9.82-16.09-7.44-37.62-28.98-20.69-6.21,4.96-7.23,8.96-12.24,12.39-8.11,5.45-12.55-1.34-8.65-6.06,2.59-3.23,4.41-3.77,6.91-5.67,12.31-9.2,4.21-27.6-12.92-23.34-33.32,8.33-69.83,49.28-76.14,87.24,0,.01,0,.02,0,.03,13.12-14.67,27.9-27.93,43.62-40,.2-.15.41-.28.62-.41,1.86-1.08,4.13-1.2,5.9-.32Z"/>
        </g>
        <g>
          <g>
            <g>
              <path class="cls-2" d="m338.84,185.77h-34.45l48.64-124.51h34.45l48.56,124.51h-34.45l-8.05-22.16h-46.65l-8.05,22.16Zm18.51-50.8h25.81l-12.95-35.53-12.87,35.53Z"/>
              <path class="cls-2" d="m559.85,185.77h-38.68l-44.82-73.88v73.88h-32.87V61.26h38.68l44.82,74.13V61.26h32.87v124.51Z"/>
              <path class="cls-2" d="m601.73,185.77h-34.45l48.64-124.51h34.45l48.56,124.51h-34.45l-8.05-22.16h-46.65l-8.05,22.16Zm18.51-50.8h25.82l-12.95-35.53-12.87,35.53Z"/>
              <path class="cls-2" d="m706.36,185.77V61.26h44.08c14.89,0,27.85,2.57,38.89,7.72,11.04,5.15,19.62,12.38,25.73,21.71,6.11,9.33,9.17,20.27,9.17,32.83s-3.06,23.44-9.17,32.79c-6.12,9.35-14.69,16.6-25.73,21.75-11.04,5.15-24,7.72-38.89,7.72h-44.08Zm32.87-28.64h12.29c8.41,0,15.52-1.3,21.33-3.9,5.81-2.6,10.22-6.4,13.24-11.41,3.02-5.01,4.52-11.11,4.52-18.3s-1.51-13.36-4.52-18.34c-3.02-4.98-7.43-8.77-13.24-11.37-5.81-2.6-12.92-3.9-21.33-3.9h-12.29v67.24Z"/>
              <path class="cls-2" d="m852.59,185.77h-34.45l48.64-124.51h34.45l48.56,124.51h-34.45l-8.05-22.16h-46.65l-8.05,22.16Zm18.51-50.8h25.81l-12.95-35.53-12.87,35.53Z"/>
              <g>
                <path class="cls-2" d="m211.94,84.1c9.56-.57,14.32-.71,23.79-.71,3.04,0,5.76,1.56,7.11,4.03.41.74.65,1.53.78,2.34,3.63-1.57,7.54-2.36,11.75-2.36,4.92,0,9.48,1.11,13.65,3.32,4.18,2.21,7.71,5.26,10.58,9.13l22.91-23.08c-5.87-5.64-12.77-10.06-20.71-13.24-7.94-3.18-16.59-4.77-25.94-4.77s-18.22,1.62-26.27,4.86c-8.05,3.24-15.05,7.78-21,13.61-1.4,1.37-2.71,2.8-3.96,4.29,2.29,1.79,4.92,2.73,7.31,2.58Z"/>
                <path class="cls-2" d="m279.53,147.17c-2.88,3.87-6.39,6.92-10.54,9.13-4.15,2.21-8.69,3.32-13.61,3.32-4.54,0-8.74-.91-12.62-2.74-3.88-1.83-7.26-4.38-10.17-7.68-1.03-1.17-1.98-2.41-2.84-3.71-9.51,5.17-18.99,10.4-28.45,15.66,2.16,3.08,4.59,5.97,7.3,8.63,5.95,5.84,12.95,10.38,21,13.61,8.05,3.24,16.81,4.86,26.27,4.86s18.11-1.58,26.11-4.73c8-3.15,14.93-7.55,20.79-13.2l-23.24-23.16Z"/>
              </g>
            </g>
            <g>
              <path class="cls-2" d="m338.84,185.77h-34.45l48.64-124.51h34.45l48.56,124.51h-34.45l-8.05-22.16h-46.65l-8.05,22.16Zm18.51-50.8h25.81l-12.95-35.53-12.87,35.53Z"/>
              <path class="cls-2" d="m559.85,185.77h-38.68l-44.82-73.88v73.88h-32.87V61.26h38.68l44.82,74.13V61.26h32.87v124.51Z"/>
              <path class="cls-2" d="m601.73,185.77h-34.45l48.64-124.51h34.45l48.56,124.51h-34.45l-8.05-22.16h-46.65l-8.05,22.16Zm18.51-50.8h25.82l-12.95-35.53-12.87,35.53Z"/>
              <path class="cls-2" d="m706.36,185.77V61.26h44.08c14.89,0,27.85,2.57,38.89,7.72,11.04,5.15,19.62,12.38,25.73,21.71,6.11,9.33,9.17,20.27,9.17,32.83s-3.06,23.44-9.17,32.79c-6.12,9.35-14.69,16.6-25.73,21.75-11.04,5.15-24,7.72-38.89,7.72h-44.08Zm32.87-28.64h12.29c8.41,0,15.52-1.3,21.33-3.9,5.81-2.6,10.22-6.4,13.24-11.41,3.02-5.01,4.52-11.11,4.52-18.3s-1.51-13.36-4.52-18.34c-3.02-4.98-7.43-8.77-13.24-11.37-5.81-2.6-12.92-3.9-21.33-3.9h-12.29v67.24Z"/>
              <path class="cls-2" d="m852.59,185.77h-34.45l48.64-124.51h34.45l48.56,124.51h-34.45l-8.05-22.16h-46.65l-8.05,22.16Zm18.51-50.8h25.81l-12.95-35.53-12.87,35.53Z"/>
              <g>
                <path class="cls-2" d="m211.94,84.1c9.56-.57,14.32-.71,23.79-.71,3.04,0,5.76,1.56,7.11,4.03.41.74.65,1.53.78,2.34,3.63-1.57,7.54-2.36,11.75-2.36,4.92,0,9.48,1.11,13.65,3.32,4.18,2.21,7.71,5.26,10.58,9.13l22.91-23.08c-5.87-5.64-12.77-10.06-20.71-13.24-7.94-3.18-16.59-4.77-25.94-4.77s-18.22,1.62-26.27,4.86c-8.05,3.24-15.05,7.78-21,13.61-1.4,1.37-2.71,2.8-3.96,4.29,2.29,1.79,4.92,2.73,7.31,2.58Z"/>
                <path class="cls-2" d="m279.53,147.17c-2.88,3.87-6.39,6.92-10.54,9.13-4.15,2.21-8.69,3.32-13.61,3.32-4.54,0-8.74-.91-12.62-2.74-3.88-1.83-7.26-4.38-10.17-7.68-1.03-1.17-1.98-2.41-2.84-3.71-9.51,5.17-18.99,10.4-28.45,15.66,2.16,3.08,4.59,5.97,7.3,8.63,5.95,5.84,12.95,10.38,21,13.61,8.05,3.24,16.81,4.86,26.27,4.86s18.11-1.58,26.11-4.73c8-3.15,14.93-7.55,20.79-13.2l-23.24-23.16Z"/>
              </g>
            </g>
          </g>
          <path class="cls-3" d="m133.16,202.77c4.04-5,6.12-7.46,10.37-12.26.14-.15.29-.28.47-.39,31.53-18.45,63.39-36.29,95.55-53.63.02-.01.04-.02.06-.03,1.27-.74,1.19-2.6-.17-3.29-2.56-1.3-3.85-1.94-6.45-3.21-7.49-3.66-9.74-11.01-5.57-17.9,4.57-7.55,6.99-11.29,12.14-18.66,2.08-2.98,0-6.81-3.84-6.8-9.42.01-14.15.16-23.66.74-8.01.49-16.11-7.16-15.98-14.94.06-3.6.11-5.41.23-9.03.05-1.52-1.76-2.27-3.23-1.42-.09.05-.17.1-.25.17-33.83,25.97-60.51,56.3-79.91,94.38-.1.21-.23.41-.39.58-5.79,6.41-8.59,9.71-14.03,16.46-8.6,9.84-7.48,25.78,2.29,34.18h0c10.35,7.59,24.46,4.71,32.37-4.95Zm18.71-54.89c23.73-21.19,48.86-39,76.83-54.44.49-.27,1.09-.09,1.36.39.27.48.09,1.09-.39,1.36-27.84,15.37-52.85,33.1-76.47,54.18-.19.17-.43.25-.67.25-.27,0-.55-.11-.75-.33-.37-.41-.33-1.04.08-1.41Zm-28.07-2.24c9.35-1.64,18.06.83,23.9,6.79,5.95,6.07,8.29,15,6.42,24.5-.09.48-.51.81-.98.81-.06,0-.13,0-.19-.02-.54-.11-.89-.63-.79-1.17,1.74-8.84-.41-17.11-5.89-22.71-5.37-5.48-13.44-7.75-22.13-6.22-.54.09-1.06-.27-1.16-.81-.09-.54.27-1.06.81-1.16Zm-18.74,37.32c5.81-7.33,8.83-10.9,15.06-17.83,4.83-5.37,12.95-5.59,17.86-.69,4.21,4.2,4.3,11.02.36,15.37-6.45,7.11-9.57,10.78-15.56,18.33-3.69,4.66-10.32,5.49-14.96,1.73-.5-.41-.75-.61-1.25-1.02-4.67-3.78-5.41-10.97-1.5-15.9Z"/>
          <g>
            <path class="cls-3" d="m141.64,105.93l14.52-70.94c.51-2.49-2.19-4.4-4.37-3.09l-16.4,9.84c-1.48.89-3.41.31-4.15-1.26L112.82,1.58c-.41-.87-1.15-1.38-1.95-1.58v153.24c8.24-17.21,18.7-32.92,30.77-47.31Z"/>
            <path class="cls-3" d="m96.03,171.42c1.84-2.29,3.38-4.18,4.84-5.93L3.69,85.78c-.12.56-.12,1.16.07,1.77l8.68,28.94c.48,1.6-.23,3.32-1.7,4.11l-8.89,4.79c-2.24,1.2-2.5,4.31-.5,5.87l55.89,43.59c1.21.94,1.67,2.56,1.14,3.99l-5.65,15.34c-.95,2.58,1.29,5.2,3.98,4.67l32.89-6.45c-.76-7.41,1.3-15.13,6.43-20.99Z"/>
            <path class="cls-3" d="m108.87,156.28V.23c-.53.26-1,.68-1.31,1.29l-19.49,38.99c-.77,1.55-2.71,2.09-4.18,1.16l-15.18-9.59c-2.17-1.37-4.92.51-4.43,3.03l13.18,68.09-27.84-28.34c-1.84-1.88-5.02-1.14-5.85,1.35l-3.42,10.25c-.56,1.68-2.29,2.69-4.03,2.34l-28.51-5.7c-1.22-.24-2.35.16-3.13.92l97.47,79.94c2.06-2.43,4.08-4.74,6.71-7.67Z"/>
          </g>
        </g>
        <path class="cls-1" d="m252.03,113.07c5.6-2.81,8.84-7.59,7.29-10.67s-7.29-3.3-12.89-.49-8.92,7.63-7.4,10.67c1.55,3.08,7.4,3.31,13,.5Z"/>
      </g>
      <g>
        <path class="cls-2" d="m239.46,243.48h-8.36l-6.47-11.15h-4.58v11.15h-7.56v-32.23h12.61c2.69,0,4.99.42,6.9,1.25,1.9.83,3.36,2.03,4.37,3.61,1.01,1.58,1.51,3.47,1.51,5.69s-.49,4.02-1.47,5.56-2.38,2.74-4.2,3.57l7.24,12.55Zm-19.4-17.06h4.47c1.83,0,3.23-.37,4.19-1.1.96-.73,1.44-1.79,1.44-3.18s-.48-2.47-1.44-3.2c-.96-.73-2.36-1.1-4.19-1.1h-4.47v8.57Z"/>
        <path class="cls-2" d="m271.24,211.26v17.7c0,3.15-.57,5.86-1.71,8.12-1.14,2.26-2.77,4-4.9,5.22s-4.68,1.83-7.66,1.83-5.49-.61-7.63-1.83c-2.13-1.22-3.77-2.96-4.91-5.22-1.14-2.26-1.71-4.97-1.71-8.12v-17.7h7.56v16.71c0,2.15.25,3.93.74,5.34.49,1.41,1.23,2.47,2.22,3.17.99.7,2.23,1.05,3.72,1.05s2.75-.35,3.74-1.05c.99-.7,1.73-1.76,2.22-3.17.49-1.41.74-3.19.74-5.34v-16.71h7.56Z"/>
        <path class="cls-2" d="m299.14,219.96c-.84-.87-1.88-1.55-3.09-2.03-1.22-.48-2.52-.72-3.91-.72s-2.62.24-3.74.71-2.08,1.15-2.89,2.03c-.81.88-1.43,1.93-1.87,3.15-.44,1.22-.66,2.59-.66,4.1s.23,2.93.69,4.2,1.11,2.36,1.94,3.27c.84.91,1.84,1.62,3,2.12,1.16.5,2.45.75,3.87.75,1.12,0,2.14-.16,3.06-.48s1.74-.79,2.45-1.4c.71-.61,1.3-1.35,1.78-2.22.48-.87.83-1.86,1.04-2.96h-8.55v-5.76h15.19l.21,2.88c0,2.45-.37,4.69-1.12,6.71-.75,2.03-1.8,3.77-3.17,5.24-1.37,1.47-3,2.6-4.89,3.39s-3.99,1.19-6.29,1.19-4.62-.43-6.67-1.28c-2.06-.85-3.85-2.04-5.39-3.56-1.54-1.52-2.74-3.3-3.6-5.34s-1.29-4.26-1.29-6.65.42-4.54,1.27-6.56c.84-2.03,2.02-3.8,3.53-5.32,1.51-1.52,3.28-2.7,5.31-3.54,2.03-.84,4.22-1.27,6.58-1.27,2.22,0,4.38.39,6.47,1.16s3.97,1.88,5.63,3.31l-4.9,4.88Z"/>
        <path class="cls-2" d="m311.89,243.48v-32.23h12.1c3.58,0,6.36.75,8.32,2.23,1.97,1.49,2.96,3.58,2.96,6.27,0,1.58-.36,2.97-1.09,4.19-.72,1.22-1.7,2.16-2.93,2.81,1.79.56,3.18,1.49,4.18,2.79,1,1.3,1.49,2.91,1.49,4.81s-.45,3.45-1.35,4.81c-.9,1.36-2.17,2.42-3.81,3.17-1.64.75-3.58,1.13-5.81,1.13h-14.05Zm7.56-18.99h4.06c1.35,0,2.4-.3,3.16-.89.76-.59,1.14-1.42,1.14-2.48,0-1-.38-1.8-1.15-2.38-.77-.59-1.83-.88-3.19-.88h-4.02v6.64Zm0,12.4h4.55c1.07,0,2-.14,2.77-.42s1.37-.68,1.78-1.2c.41-.52.62-1.14.62-1.86s-.19-1.32-.56-1.82c-.37-.49-.91-.87-1.61-1.14-.7-.26-1.55-.4-2.56-.4h-5.01v6.83Z"/>
        <path class="cls-2" d="m356.59,243.48h-7.56v-13.77l-12.1-18.46h9.2l6.64,11.75,6.72-11.75h9.2l-12.1,18.48v13.75Z"/>
        <path class="cls-2" d="m380.44,239.9l3.57-5.76c1.02.8,1.98,1.46,2.9,1.97.92.51,1.82.88,2.71,1.13.89.24,1.79.37,2.71.37,1,0,1.87-.13,2.59-.4.72-.26,1.28-.64,1.68-1.13.39-.49.59-1.07.59-1.74,0-.79-.27-1.46-.79-2.01-.53-.55-1.23-1.04-2.1-1.46-.87-.42-1.81-.84-2.82-1.26-1.03-.43-2.08-.89-3.15-1.4-1.07-.5-2.04-1.11-2.93-1.84-.89-.72-1.61-1.6-2.16-2.63-.55-1.03-.83-2.28-.83-3.76,0-1.95.49-3.62,1.47-5.02.98-1.4,2.33-2.47,4.04-3.22,1.71-.75,3.65-1.13,5.81-1.13,1.57,0,3.22.21,4.93.62,1.71.42,3.43,1.06,5.17,1.93l-2.94,6.08c-1.03-.63-2.15-1.13-3.34-1.49-1.2-.37-2.31-.55-3.34-.55-.82,0-1.53.12-2.14.35-.61.24-1.08.57-1.42,1-.34.43-.5.93-.5,1.5,0,.73.26,1.36.78,1.9.52.54,1.21,1.02,2.05,1.45.84.43,1.76.87,2.75,1.31,1.04.44,2.11.94,3.19,1.48,1.08.54,2.08,1.19,2.99,1.92.91.74,1.64,1.62,2.19,2.65.55,1.03.83,2.27.83,3.72,0,1.91-.51,3.58-1.54,5.04-1.02,1.45-2.46,2.58-4.3,3.38-1.84.8-3.98,1.2-6.41,1.2-2.25,0-4.41-.36-6.48-1.08-2.07-.72-3.98-1.77-5.75-3.15Z"/>
        <path class="cls-2" d="m437.55,211.26v17.7c0,3.15-.57,5.86-1.71,8.12-1.14,2.26-2.77,4-4.9,5.22s-4.68,1.83-7.66,1.83-5.49-.61-7.63-1.83c-2.13-1.22-3.77-2.96-4.91-5.22-1.14-2.26-1.71-4.97-1.71-8.12v-17.7h7.56v16.71c0,2.15.25,3.93.74,5.34.49,1.41,1.24,2.47,2.22,3.17.99.7,2.23,1.05,3.72,1.05s2.75-.35,3.74-1.05c.99-.7,1.73-1.76,2.22-3.17.49-1.41.74-3.19.74-5.34v-16.71h7.56Z"/>
        <path class="cls-2" d="m442.76,243.48v-32.23h12.1c3.58,0,6.36.75,8.33,2.23,1.97,1.49,2.95,3.58,2.95,6.27,0,1.58-.36,2.97-1.09,4.19-.72,1.22-1.7,2.16-2.93,2.81,1.79.56,3.18,1.49,4.18,2.79,1,1.3,1.49,2.91,1.49,4.81s-.45,3.45-1.35,4.81c-.9,1.36-2.17,2.42-3.81,3.17-1.64.75-3.58,1.13-5.81,1.13h-14.05Zm7.56-18.99h4.06c1.35,0,2.4-.3,3.16-.89.76-.59,1.14-1.42,1.14-2.48,0-1-.38-1.8-1.15-2.38-.77-.59-1.83-.88-3.19-.88h-4.02v6.64Zm0,12.4h4.55c1.07,0,2-.14,2.77-.42s1.37-.68,1.78-1.2c.42-.52.62-1.14.62-1.86s-.19-1.32-.56-1.82c-.37-.49-.91-.87-1.61-1.14-.7-.26-1.55-.4-2.56-.4h-5.01v6.83Z"/>
        <path class="cls-2" d="m477.1,243.48h-7.93l12.72-32.23h7.95l12.7,32.23h-7.93l-2.36-6.34h-12.78l-2.36,6.34Zm4.79-12.93h7.95l-3.97-10.57-3.97,10.57Z"/>
        <path class="cls-2" d="m537.19,249c-2.03-.43-3.83-.87-5.39-1.32-1.56-.45-3.05-.96-4.47-1.53-1.42-.57-2.93-1.25-4.53-2.05h-1.01c-2.46,0-4.73-.42-6.8-1.26-2.07-.84-3.87-2.01-5.4-3.51-1.53-1.5-2.72-3.27-3.57-5.31-.85-2.03-1.27-4.25-1.27-6.66s.42-4.63,1.27-6.66c.84-2.03,2.03-3.81,3.57-5.32,1.53-1.51,3.33-2.69,5.4-3.52,2.07-.84,4.34-1.26,6.82-1.26s4.71.42,6.78,1.26c2.07.84,3.86,2.01,5.38,3.52,1.52,1.51,2.7,3.28,3.54,5.32.84,2.03,1.27,4.25,1.27,6.66,0,2.16-.35,4.18-1.05,6.06-.7,1.88-1.68,3.54-2.94,5.01-1.26,1.46-2.76,2.64-4.49,3.54.95.2,1.87.37,2.77.52.9.14,1.82.26,2.76.34.94.09,1.94.16,3,.21l-1.63,5.95Zm-15.4-11.47c1.32,0,2.54-.26,3.66-.77,1.12-.52,2.11-1.24,2.94-2.16s1.49-2,1.96-3.23c.46-1.23.7-2.56.7-4s-.23-2.76-.7-4c-.47-1.23-1.12-2.31-1.96-3.23s-1.82-1.64-2.94-2.16c-1.12-.52-2.35-.77-3.66-.77s-2.55.26-3.68.77-2.13,1.24-2.96,2.16-1.49,2-1.96,3.23c-.47,1.23-.7,2.56-.7,4s.23,2.76.7,4c.46,1.23,1.12,2.31,1.96,3.23s1.83,1.64,2.96,2.16,2.37.77,3.68.77Z"/>
        <path class="cls-2" d="m571.64,211.26v17.7c0,3.15-.57,5.86-1.71,8.12-1.14,2.26-2.77,4-4.9,5.22s-4.68,1.83-7.66,1.83-5.49-.61-7.63-1.83c-2.13-1.22-3.77-2.96-4.91-5.22-1.14-2.26-1.71-4.97-1.71-8.12v-17.7h7.56v16.71c0,2.15.25,3.93.74,5.34.49,1.41,1.24,2.47,2.22,3.17.99.7,2.23,1.05,3.72,1.05s2.75-.35,3.74-1.05c.99-.7,1.73-1.76,2.22-3.17.49-1.41.74-3.19.74-5.34v-16.71h7.56Z"/>
        <path class="cls-2" d="m582.11,243.48h-7.93l12.72-32.23h7.95l12.7,32.23h-7.93l-2.36-6.34h-12.78l-2.36,6.34Zm4.79-12.93h7.95l-3.97-10.57-3.97,10.57Z"/>
        <path class="cls-2" d="m623.3,243.48h-7.56v-25.63h-9.22v-6.6h26v6.6h-9.22v25.63Z"/>
        <path class="cls-2" d="m643.23,243.48h-7.56v-32.23h7.56v32.23Z"/>
        <path class="cls-2" d="m679.89,249c-2.03-.43-3.83-.87-5.39-1.32-1.56-.45-3.05-.96-4.47-1.53-1.42-.57-2.93-1.25-4.53-2.05h-1.01c-2.46,0-4.73-.42-6.8-1.26-2.07-.84-3.87-2.01-5.4-3.51-1.53-1.5-2.72-3.27-3.57-5.31-.85-2.03-1.27-4.25-1.27-6.66s.42-4.63,1.27-6.66c.84-2.03,2.03-3.81,3.57-5.32,1.53-1.51,3.33-2.69,5.4-3.52,2.07-.84,4.34-1.26,6.82-1.26s4.71.42,6.78,1.26c2.07.84,3.86,2.01,5.38,3.52,1.52,1.51,2.7,3.28,3.54,5.32.84,2.03,1.27,4.25,1.27,6.66,0,2.16-.35,4.18-1.05,6.06-.7,1.88-1.68,3.54-2.94,5.01-1.26,1.46-2.76,2.64-4.49,3.54.95.2,1.87.37,2.77.52.9.14,1.82.26,2.76.34.94.09,1.94.16,3,.21l-1.63,5.95Zm-15.4-11.47c1.32,0,2.54-.26,3.66-.77,1.12-.52,2.11-1.24,2.94-2.16s1.49-2,1.96-3.23c.46-1.23.7-2.56.7-4s-.23-2.76-.7-4c-.47-1.23-1.12-2.31-1.96-3.23s-1.82-1.64-2.94-2.16c-1.12-.52-2.35-.77-3.66-.77s-2.55.26-3.68.77-2.13,1.24-2.96,2.16-1.49,2-1.96,3.23c-.47,1.23-.7,2.56-.7,4s.23,2.76.7,4c.46,1.23,1.12,2.31,1.96,3.23s1.83,1.64,2.96,2.16,2.37.77,3.68.77Z"/>
        <path class="cls-2" d="m714.34,211.26v17.7c0,3.15-.57,5.86-1.71,8.12-1.14,2.26-2.77,4-4.9,5.22s-4.68,1.83-7.66,1.83-5.49-.61-7.63-1.83c-2.13-1.22-3.77-2.96-4.91-5.22-1.14-2.26-1.71-4.97-1.71-8.12v-17.7h7.56v16.71c0,2.15.25,3.93.74,5.34.49,1.41,1.24,2.47,2.22,3.17.99.7,2.23,1.05,3.72,1.05s2.75-.35,3.74-1.05c.99-.7,1.73-1.76,2.22-3.17.49-1.41.74-3.19.74-5.34v-16.71h7.56Z"/>
        <path class="cls-2" d="m719.55,243.48v-32.23h21.14v6.6h-13.58v6.17h12.72v6.6h-12.72v6.27h13.79v6.6h-21.36Z"/>
      </g>
    </g>
  </g>
</svg>