<?xml version="1.0" encoding="UTF-8"?>
<svg id="Labels" xmlns="http://www.w3.org/2000/svg" viewBox="0 0 292.9 47.59">
  <defs>
    <style>
      .cls-1 {
        fill-rule: evenodd;
      }

      .cls-1, .cls-2 {
        fill: #fff;
        stroke-width: 0px;
      }
    </style>
  </defs>
  <g>
    <g>
      <path class="cls-2" d="m88.71,27.59c0,1.75-.18,3.2-.54,4.32-.35,1.08-.88,1.89-1.58,2.4-.7.51-1.62.77-2.74.77s-2.04-.26-2.74-.77c-.7-.51-1.23-1.32-1.58-2.4-.36-1.11-.54-2.57-.54-4.32v-14.8h-8.12v15.82c0,2.8.52,5.25,1.55,7.27,1.03,2.04,2.55,3.63,4.49,4.72,1.93,1.09,4.27,1.64,6.94,1.64s5.02-.55,6.95-1.64c1.94-1.09,3.44-2.68,4.48-4.72,1.03-2.03,1.55-4.47,1.55-7.27v-15.82h-8.12v14.8Z"/>
      <path class="cls-2" d="m127.86,24.49h-13.95v6.31h6.65c-.19.63-.43,1.2-.72,1.71-.35.61-.79,1.12-1.3,1.54-.5.41-1.09.73-1.75.94-.67.21-1.42.32-2.23.32-1.09,0-2.1-.19-2.98-.58-.88-.38-1.66-.93-2.3-1.62-.64-.7-1.15-1.55-1.49-2.53-.35-.99-.53-2.1-.53-3.31s.17-2.26.5-3.2c.33-.93.8-1.74,1.4-2.41.6-.66,1.32-1.17,2.16-1.52.84-.35,1.79-.53,2.83-.53s2.1.19,3.04.56c.93.37,1.73.89,2.37,1.56l.24.25,5.29-5.29-.27-.23c-1.49-1.28-3.2-2.27-5.07-2.96-1.87-.69-3.82-1.04-5.8-1.04-2.1,0-4.09.38-5.89,1.14-1.81.75-3.41,1.82-4.76,3.18-1.36,1.35-2.42,2.95-3.18,4.75-.75,1.8-1.13,3.78-1.13,5.87s.39,4.12,1.16,5.94c.77,1.83,1.87,3.44,3.25,4.8,1.39,1.36,3.02,2.43,4.87,3.19,1.85.76,3.87,1.14,6.01,1.14s3.95-.36,5.63-1.07c1.69-.71,3.16-1.74,4.38-3.04s2.17-2.89,2.83-4.69c.66-1.8.99-3.82.99-5.99l-.23-3.18Z"/>
      <path class="cls-2" d="m147.02,12.79h-8.26l-11.5,29.71h8.53l2.05-5.85h10.11l2.27,5.85h8.53l-11.71-29.71Zm-6.58,16.7l2.44-6.74,2.46,6.74h-4.9Z"/>
      <g>
        <path class="cls-2" d="m68.37,16.4c-1.36-1.3-2.97-2.34-4.8-3.07-1.83-.73-3.85-1.11-6-1.11s-4.22.38-6.08,1.13c-1.86.75-3.5,1.81-4.87,3.16-.5.49-.95,1.01-1.37,1.56.03.03.06.06.09.09.06.06.13.12.2.18.06.05.13.11.21.16.28.19.57.32.85.39h0s0,0,0,0c.08.02.16.04.25.05.08.01.16.02.24.02.04,0,.07,0,.11,0,1.73-.11,2.74-.14,4.13-.16.15,0,.29,0,.44,0,.02,0,.04,0,.06,0,.22,0,.45,0,.69,0,.58,0,1.12.25,1.47.68.14.16.24.35.31.55.02.05.03.1.04.15.12-.07.25-.13.37-.19.83-.39,1.74-.59,2.72-.59,1.05,0,2.04.24,2.94.71.9.47,1.67,1.14,2.29,1.97l.23.31,5.71-5.75-.25-.23Z"/>
        <path class="cls-2" d="m62.89,32.08l-.23.31c-.62.84-1.39,1.5-2.28,1.98-.89.47-1.87.71-2.93.71-.97,0-1.89-.2-2.72-.59-.83-.39-1.57-.95-2.2-1.66-.13-.15-.26-.31-.38-.47l-.07.04-.29.16h0s0,0,0,0c-.09.05-.19.1-.28.15-.18.1-.36.2-.54.29-.18.1-.36.19-.54.29l-.14.08-.15.08c-1.23.67-2.22,1.22-3.14,1.73h0s0,0,0,0c-.1.05-.18.1-.26.14h-.01s-.01.01-.01.01c-.39.21-.74.41-1.07.59h-.01s-.01.01-.01.01c-.09.05-.18.1-.27.15h0s0,0,0,0c-.07.04-.14.08-.21.12.45.61.95,1.19,1.49,1.72,1.37,1.35,3.01,2.41,4.87,3.16,1.86.75,3.9,1.13,6.08,1.13s4.2-.37,6.04-1.09c1.85-.73,3.47-1.76,4.82-3.06l.25-.24-5.78-5.76Z"/>
      </g>
    </g>
    <g>
      <path class="cls-2" d="m34.82,8.05s0,.05-.01.07l-3.24,15.81c-2.69,3.21-5.02,6.71-6.86,10.55V.32c.18.04.34.16.43.35l4.11,8.67c.06.12.14.21.25.28.13.08.28.11.43.09.08-.01.17-.04.25-.09l3.66-2.19s.06-.03.08-.04c.08-.04.17-.05.25-.05.11,0,.21.03.3.08.04.02.07.04.1.07.02.01.03.03.05.04.02.01.03.03.04.04.04.04.08.1.1.16h0c.04.1.06.21.05.33Z"/>
      <path class="cls-2" d="m19.97,43.21l-7.33,1.44c-.05.01-.1.02-.16.02-.53,0-.93-.53-.73-1.06l1.26-3.42c.12-.32.02-.68-.25-.89L.3,29.58c-.45-.35-.39-1.04.11-1.31l1.98-1.07c.33-.18.49-.56.38-.92l-1.94-6.45c-.04-.14-.04-.27-.01-.4l21.66,17.77c-.32.39-.67.81-1.08,1.32-1.14,1.3-1.61,3.03-1.44,4.68Z"/>
      <path class="cls-2" d="m22.77,36.87L1.04,19.05c.14-.14.33-.22.54-.22.05,0,.1,0,.16.02l6.35,1.27c.05.01.1.02.16.02.08,0,.16-.01.24-.04.04-.01.08-.03.11-.05.04-.02.07-.04.1-.06.03-.02.06-.05.09-.08.08-.08.15-.19.19-.31l.76-2.28s.03-.08.05-.12c.02-.04.04-.07.07-.1.01-.02.03-.03.04-.05.02-.02.03-.03.04-.04.03-.03.06-.05.09-.08.03-.02.07-.04.1-.06.11-.05.23-.08.35-.08.2,0,.4.07.56.23l6.21,6.32-2.94-15.18c-.08-.43.26-.78.64-.78.12,0,.24.03.35.1l3.38,2.14c.11.07.23.1.35.1.24,0,.47-.13.58-.36L23.98.66c.07-.14.17-.23.29-.29v34.79c-.59.65-1.04,1.17-1.49,1.71Z"/>
    </g>
    <g>
      <path class="cls-2" d="m24.69,35.77h.02v-.02s-.02.02-.02.02Z"/>
      <path class="cls-2" d="m53.37,30.01c-.37-.19-.63-.32-.92-.46-.12-.06-.25-.12-.41-.2-.04-.02-.07-.04-.11-.05-.61-.3-1.06-.7-1.35-1.17-.27-.44-.39-.94-.35-1.46.03-.45.18-.91.45-1.36.02-.04.04-.08.07-.11.98-1.61,1.52-2.44,2.64-4.05.1-.15.16-.31.18-.47.01-.13,0-.26-.04-.38-.04-.1-.09-.21-.16-.29-.18-.22-.47-.37-.83-.37-.24,0-.47,0-.68,0-.17,0-.33,0-.49,0-1.4.02-2.41.06-4.1.16-.17.01-.34,0-.51-.02-.12-.02-.24-.04-.36-.07-.4-.1-.78-.28-1.13-.51-.09-.06-.18-.13-.27-.2-.09-.07-.17-.15-.25-.23-.32-.31-.58-.67-.76-1.06-.06-.12-.11-.24-.14-.37-.09-.29-.14-.58-.14-.88.01-.8.02-1.21.05-2.01.01-.34-.39-.51-.72-.32-.02.01-.04.02-.06.04-4.49,3.45-8.42,7.24-11.77,11.54-2.28,2.92-4.29,6.07-6.04,9.5-.02.05-.05.09-.09.13-.13.14-.25.28-.37.41v.02h-.02c-.52.58-.94,1.06-1.36,1.56-.09.11-.19.23-.29.34-.33.39-.68.82-1.09,1.34-.99,1.13-1.4,2.63-1.27,4.06.12,1.35.72,2.65,1.78,3.56,2.31,1.69,5.45,1.05,7.22-1.1.9-1.12,1.36-1.66,2.31-2.73.03-.03.07-.06.1-.08,3.71-2.17,7.43-4.3,11.18-6.4.1-.06.19-.11.29-.16.36-.2.72-.4,1.07-.6.1-.06.19-.11.29-.16.1-.06.2-.11.29-.16.36-.2.72-.4,1.07-.6.1-.06.2-.11.29-.16,1.05-.58,2.09-1.15,3.14-1.73.1-.05.19-.11.29-.16.36-.2.72-.39,1.08-.59.1-.05.2-.11.29-.16.1-.05.2-.11.29-.16.36-.19.72-.39,1.08-.58.1-.05.2-.1.29-.16.11-.06.22-.12.33-.18,0,0,0,0,.01,0,.28-.16.27-.58-.04-.74Zm-22.54,10.4c-1.44,1.58-2.13,2.4-3.47,4.09-.82,1.04-2.3,1.22-3.33.39-.11-.09-.17-.14-.28-.23-.61-.49-.92-1.25-.89-2.01.02-.54.2-1.08.56-1.54.61-.77,1.08-1.35,1.55-1.91.54-.64,1.07-1.24,1.81-2.06.61-.68,1.46-.99,2.29-.93.62.05,1.22.31,1.69.78.94.94.96,2.46.08,3.43Zm3.52-.64c-.02.11-.11.18-.22.18-.01,0-.03,0-.04,0-.12-.02-.2-.14-.18-.26.33-1.68.04-3.27-.83-4.49-.78-1.1-1.99-1.81-3.39-2.01h0c-.64-.09-1.32-.08-2.02.05-.01,0-.02,0-.04,0-.11,0-.2-.08-.22-.19-.02-.12.06-.24.18-.26.75-.13,1.48-.15,2.16-.05h0c1.53.22,2.84,1,3.7,2.2.93,1.32,1.26,3.03.9,4.83Zm10.23-14.21c-.12.08-.24.16-.36.24-.43.29-.86.58-1.28.88-.11.08-.23.16-.34.24-.11.08-.23.16-.34.24-.41.29-.81.58-1.21.88-.11.08-.22.16-.32.24-2.26,1.67-4.44,3.46-6.58,5.36-.04.04-.1.06-.15.06-.06,0-.12-.03-.17-.08-.08-.09-.07-.23.02-.31,2.22-1.98,4.5-3.83,6.85-5.57.11-.08.22-.16.33-.25.41-.3.82-.59,1.24-.88.11-.08.23-.16.35-.24.12-.08.23-.16.35-.24.44-.31.88-.6,1.33-.9.12-.08.25-.16.37-.25,1.61-1.06,3.27-2.08,4.97-3.05.19-.11.39-.23.59-.33.25-.14.51-.29.76-.43.11-.06.25-.02.3.09.06.11.02.24-.09.3-.47.26-.95.53-1.41.8-.17.1-.35.2-.52.3-1.6.93-3.16,1.9-4.68,2.91Z"/>
    </g>
    <path class="cls-1" d="m58.91,4.16c1.1-.55,1.54-1.88,1-2.96s-1.86-1.51-2.96-.96-1.56,1.89-1.02,2.95,1.89,1.52,2.99.96Z"/>
    <path class="cls-1" d="m56.66,7.01c-1.39,1.1-1.61,2-2.73,2.76-1.81,1.21-2.8-.3-1.93-1.35.58-.72.98-.84,1.54-1.26,2.74-2.05.94-6.15-2.88-5.2-7.43,1.86-15.57,10.99-16.97,19.45,0,.04,0,.07-.01.11,2.59-2.82,5.5-5.47,8.81-8.01.04-.03.08-.06.11-.08h.01s.01-.01.01-.01c.22-.13.46-.19.71-.19.36,0,.69.14.93.38.23.23.35.55.33.88-.03.78-.04,1.17-.05,1.98.31-.37.64-.72.98-1.06,1.52-1.49,3.33-2.67,5.38-3.49,2.04-.82,4.28-1.24,6.66-1.24,1.98,0,3.86.29,5.6.87,2.07-3.58-1.76-8.26-6.52-4.52Z"/>
    <path class="cls-1" d="m56.29,26.95c1.25-.63,1.97-1.69,1.63-2.38s-1.62-.74-2.87-.11-1.99,1.7-1.65,2.38,1.65.74,2.9.11Z"/>
  </g>
  <g>
    <path class="cls-2" d="m174.18,20.18c-.39.38-.86.68-1.39.89-.54.21-1.12.32-1.76.32s-1.23-.11-1.77-.33-1.01-.52-1.41-.92c-.4-.39-.71-.86-.93-1.39-.22-.53-.33-1.11-.33-1.74s.11-1.21.33-1.74c.22-.53.53-.99.93-1.39.4-.39.87-.7,1.41-.92s1.13-.33,1.77-.33,1.21.11,1.75.32c.53.21,1,.51,1.39.9l-1.38,1.38c-.21-.28-.47-.49-.78-.65-.31-.16-.65-.24-1.01-.24-.34,0-.66.07-.95.2-.29.13-.55.32-.76.56-.22.24-.38.52-.5.84-.12.32-.18.67-.18,1.04s.06.73.18,1.05.29.6.5.84c.22.24.47.43.76.56s.61.2.95.2c.37,0,.7-.08,1.01-.24.31-.16.57-.37.79-.65l1.39,1.39Z"/>
    <path class="cls-2" d="m176.68,21.23h-2.07l3.31-8.4h2.07l3.31,8.4h-2.07l-.62-1.65h-3.33l-.62,1.65Zm1.25-3.37h2.07l-1.04-2.75-1.04,2.75Z"/>
    <path class="cls-2" d="m191.88,21.23h-2.3l-3.48-5.36v5.36h-1.97v-8.4h2.3l3.48,5.37v-5.37h1.97v8.4Z"/>
    <path class="cls-2" d="m194.78,21.23h-2.07l3.31-8.4h2.07l3.31,8.4h-2.07l-.62-1.65h-3.33l-.62,1.65Zm1.25-3.37h2.07l-1.04-2.75-1.04,2.75Z"/>
    <path class="cls-2" d="m202.24,21.23v-8.4h2.86c1.01,0,1.89.17,2.63.52.74.35,1.32.83,1.73,1.46.41.63.62,1.37.62,2.22s-.21,1.59-.62,2.22c-.41.63-.99,1.12-1.73,1.46-.74.35-1.62.52-2.63.52h-2.86Zm1.97-1.72h.96c.62,0,1.14-.1,1.57-.29.43-.19.76-.47.98-.84.23-.37.34-.82.34-1.35s-.11-.98-.34-1.35c-.23-.37-.55-.65-.98-.84-.43-.19-.95-.29-1.57-.29h-.96v4.96Z"/>
    <path class="cls-2" d="m213.15,21.23h-1.97v-8.4h1.97v8.4Z"/>
    <path class="cls-2" d="m216.04,21.23h-2.07l3.31-8.4h2.07l3.31,8.4h-2.07l-.62-1.65h-3.33l-.62,1.65Zm1.25-3.37h2.07l-1.04-2.75-1.04,2.75Z"/>
    <path class="cls-2" d="m231.25,21.23h-2.3l-3.48-5.36v5.36h-1.97v-8.4h2.3l3.48,5.37v-5.37h1.97v8.4Z"/>
    <path class="cls-2" d="m174.28,23.45v4.61c0,.82-.15,1.53-.45,2.12s-.72,1.04-1.28,1.36-1.22.48-2,.48-1.43-.16-1.99-.48c-.56-.32-.98-.77-1.28-1.36s-.45-1.3-.45-2.12v-4.61h1.97v4.36c0,.56.06,1.02.19,1.39.13.37.32.64.58.83.26.18.58.27.97.27s.72-.09.97-.27.45-.46.58-.83c.13-.37.19-.83.19-1.39v-4.36h1.97Z"/>
    <path class="cls-2" d="m183.38,31.84h-2.3l-3.48-5.36v5.36h-1.97v-8.4h2.3l3.48,5.37v-5.37h1.97v8.4Z"/>
    <path class="cls-2" d="m184.74,31.84v-8.4h2.86c1.01,0,1.89.17,2.63.52.74.35,1.32.83,1.73,1.46.41.63.62,1.37.62,2.22s-.21,1.59-.62,2.22c-.41.63-.99,1.12-1.73,1.46-.74.35-1.62.52-2.63.52h-2.86Zm1.97-1.72h.96c.62,0,1.14-.1,1.57-.29.43-.19.76-.47.98-.84.23-.37.34-.82.34-1.35s-.11-.98-.34-1.35c-.23-.37-.55-.65-.98-.84-.43-.19-.95-.29-1.57-.29h-.96v4.96Z"/>
    <path class="cls-2" d="m193.67,31.84v-8.4h5.51v1.72h-3.54v1.61h3.31v1.72h-3.31v1.63h3.59v1.72h-5.57Z"/>
    <path class="cls-2" d="m207.57,31.84h-2.18l-1.69-2.91h-1.19v2.91h-1.97v-8.4h3.29c.7,0,1.3.11,1.8.32.5.22.88.53,1.14.94s.39.91.39,1.48-.13,1.05-.38,1.45c-.26.4-.62.71-1.09.93l1.89,3.27Zm-5.06-4.45h1.16c.48,0,.84-.1,1.09-.29.25-.19.38-.47.38-.83s-.13-.64-.38-.83c-.25-.19-.61-.29-1.09-.29h-1.16v2.23Z"/>
    <path class="cls-2" d="m217.39,31.84h-1.83l-1.57-5.17-1.57,5.17h-1.83l-2.73-8.4h2.07l1.57,5.21,1.57-5.21h1.84l1.57,5.19,1.57-5.19h2.07l-2.72,8.4Z"/>
    <path class="cls-2" d="m221.82,31.84h-2.07l3.31-8.4h2.07l3.31,8.4h-2.07l-.62-1.65h-3.33l-.62,1.65Zm1.25-3.37h2.07l-1.04-2.75-1.04,2.75Z"/>
    <path class="cls-2" d="m232.56,31.84h-1.97v-6.68h-2.4v-1.72h6.77v1.72h-2.4v6.68Z"/>
    <path class="cls-2" d="m235.78,31.84v-8.4h5.51v1.72h-3.54v1.61h3.31v1.72h-3.31v1.63h3.59v1.72h-5.57Z"/>
    <path class="cls-2" d="m249.68,31.84h-2.18l-1.69-2.91h-1.19v2.91h-1.97v-8.4h3.29c.7,0,1.3.11,1.8.32.5.22.88.53,1.14.94s.39.91.39,1.48-.13,1.05-.38,1.45c-.26.4-.62.71-1.09.93l1.89,3.27Zm-5.06-4.45h1.16c.48,0,.84-.1,1.09-.29.25-.19.38-.47.38-.83s-.13-.64-.38-.83-.61-.29-1.09-.29h-1.16v2.23Z"/>
    <path class="cls-2" d="m172.81,36.33c-.22-.23-.49-.4-.81-.53-.32-.13-.66-.19-1.02-.19s-.68.06-.97.18c-.29.12-.54.3-.75.53-.21.23-.37.5-.49.82-.11.32-.17.67-.17,1.07s.06.76.18,1.09c.12.33.29.61.51.85.22.24.48.42.78.55.3.13.64.2,1.01.2.29,0,.56-.04.8-.13.24-.08.45-.21.64-.36s.34-.35.46-.58.22-.49.27-.77h-2.23v-1.5h3.96l.06.75c0,.64-.1,1.22-.29,1.75-.19.53-.47.98-.83,1.37-.36.38-.78.68-1.27.88-.49.21-1.04.31-1.64.31s-1.2-.11-1.74-.33-1-.53-1.41-.93-.71-.86-.94-1.39-.34-1.11-.34-1.73.11-1.18.33-1.71c.22-.53.53-.99.92-1.39.39-.4.85-.7,1.38-.92s1.1-.33,1.72-.33c.58,0,1.14.1,1.69.3.54.2,1.03.49,1.47.86l-1.28,1.27Z"/>
    <path class="cls-2" d="m177.68,42.46h-2.07l3.31-8.4h2.07l3.31,8.4h-2.07l-.62-1.65h-3.33l-.62,1.65Zm1.25-3.37h2.07l-1.04-2.75-1.04,2.75Z"/>
    <path class="cls-2" d="m194.29,42.46h-1.97v-5.58l-1.86,4.17h-1.48l-1.86-4.15v5.56h-1.97v-8.4h2.49l2.08,4.78,2.08-4.78h2.5v8.4Z"/>
    <path class="cls-2" d="m195.64,42.46v-8.4h5.51v1.72h-3.54v1.61h3.31v1.72h-3.31v1.63h3.59v1.72h-5.57Z"/>
    <path class="cls-2" d="m202.06,41.52l.93-1.5c.27.21.52.38.76.51.24.13.47.23.71.29.23.06.47.1.71.1.26,0,.49-.03.67-.1.19-.07.33-.17.44-.29.1-.13.15-.28.15-.45,0-.21-.07-.38-.21-.52-.14-.14-.32-.27-.55-.38-.23-.11-.47-.22-.74-.33-.27-.11-.54-.23-.82-.36s-.53-.29-.76-.48c-.23-.19-.42-.42-.56-.69-.14-.27-.22-.6-.22-.98,0-.51.13-.94.38-1.31s.61-.64,1.05-.84c.45-.2.95-.29,1.51-.29.41,0,.84.05,1.28.16.45.11.89.28,1.35.5l-.77,1.58c-.27-.16-.56-.29-.87-.39-.31-.1-.6-.14-.87-.14-.21,0-.4.03-.56.09s-.28.15-.37.26c-.09.11-.13.24-.13.39,0,.19.07.36.2.5.14.14.31.27.53.38.22.11.46.23.72.34.27.12.55.24.83.39.28.14.54.31.78.5.24.19.43.42.57.69.14.27.22.59.22.97,0,.5-.13.93-.4,1.31s-.64.67-1.12.88c-.48.21-1.04.31-1.67.31-.59,0-1.15-.09-1.69-.28-.54-.19-1.04-.46-1.5-.82Z"/>
    <path class="cls-2" d="m213.7,42.46h-2.07l3.31-8.4h2.07l3.31,8.4h-2.07l-.62-1.65h-3.33l-.62,1.65Zm1.25-3.37h2.07l-1.04-2.75-1.04,2.75Z"/>
    <path class="cls-2" d="m220.77,41.52l.93-1.5c.27.21.52.38.76.51.24.13.47.23.71.29.23.06.47.1.71.1.26,0,.49-.03.67-.1.19-.07.33-.17.44-.29.1-.13.15-.28.15-.45,0-.21-.07-.38-.21-.52-.14-.14-.32-.27-.55-.38-.23-.11-.47-.22-.74-.33-.27-.11-.54-.23-.82-.36-.28-.13-.53-.29-.76-.48-.23-.19-.42-.42-.56-.69-.14-.27-.22-.6-.22-.98,0-.51.13-.94.38-1.31s.61-.64,1.05-.84c.45-.2.95-.29,1.51-.29.41,0,.84.05,1.28.16.45.11.9.28,1.35.5l-.77,1.58c-.27-.16-.56-.29-.87-.39s-.6-.14-.87-.14c-.21,0-.4.03-.56.09-.16.06-.28.15-.37.26-.09.11-.13.24-.13.39,0,.19.07.36.2.5.14.14.31.27.53.38.22.11.46.23.72.34.27.12.55.24.83.39.28.14.54.31.78.5.24.19.43.42.57.69s.22.59.22.97c0,.5-.13.93-.4,1.31-.27.38-.64.67-1.12.88-.48.21-1.04.31-1.67.31-.59,0-1.15-.09-1.69-.28-.54-.19-1.04-.46-1.5-.82Z"/>
    <path class="cls-2" d="m227.72,41.52l.93-1.5c.27.21.52.38.76.51.24.13.47.23.71.29.23.06.47.1.71.1.26,0,.49-.03.67-.1.19-.07.33-.17.44-.29.1-.13.15-.28.15-.45,0-.21-.07-.38-.21-.52-.14-.14-.32-.27-.55-.38-.23-.11-.47-.22-.74-.33-.27-.11-.54-.23-.82-.36-.28-.13-.53-.29-.76-.48-.23-.19-.42-.42-.56-.69s-.22-.6-.22-.98c0-.51.13-.94.38-1.31.26-.36.61-.64,1.05-.84.45-.2.95-.29,1.51-.29.41,0,.84.05,1.28.16.45.11.9.28,1.35.5l-.77,1.58c-.27-.16-.56-.29-.87-.39s-.6-.14-.87-.14c-.21,0-.4.03-.56.09-.16.06-.28.15-.37.26-.09.11-.13.24-.13.39,0,.19.07.36.2.5.14.14.31.27.53.38.22.11.46.23.72.34.27.12.55.24.83.39.28.14.54.31.78.5.24.19.43.42.57.69s.22.59.22.97c0,.5-.13.93-.4,1.31-.27.38-.64.67-1.12.88-.48.21-1.04.31-1.67.31-.59,0-1.15-.09-1.69-.28-.54-.19-1.04-.46-1.5-.82Z"/>
    <path class="cls-2" d="m239.36,42.63c-.64,0-1.23-.11-1.77-.33-.54-.22-1.01-.52-1.41-.92-.4-.39-.71-.86-.93-1.39-.22-.53-.33-1.11-.33-1.74s.11-1.21.33-1.74c.22-.53.53-.99.93-1.39.4-.39.87-.7,1.41-.92.54-.22,1.13-.33,1.78-.33s1.23.11,1.77.33c.54.22,1.01.52,1.4.92.4.39.7.86.92,1.39.22.53.33,1.11.33,1.74s-.11,1.21-.33,1.74c-.22.53-.53.99-.92,1.39-.4.39-.86.7-1.4.92-.54.22-1.13.33-1.77.33Zm0-1.72c.34,0,.66-.07.95-.2.29-.13.55-.32.77-.56.22-.24.39-.52.51-.84.12-.32.18-.67.18-1.04s-.06-.72-.18-1.04c-.12-.32-.29-.6-.51-.84-.22-.24-.47-.43-.77-.56-.29-.13-.61-.2-.95-.2s-.66.07-.96.2c-.3.13-.55.32-.77.56-.22.24-.39.52-.51.84-.12.32-.18.67-.18,1.04s.06.72.18,1.04c.12.32.29.6.51.84.22.24.48.43.77.56s.62.2.96.2Z"/>
    <path class="cls-2" d="m252.23,41.41c-.39.38-.86.68-1.39.89-.54.21-1.12.32-1.76.32s-1.23-.11-1.77-.33c-.54-.22-1.01-.52-1.41-.92-.4-.39-.71-.86-.93-1.39-.22-.53-.33-1.11-.33-1.74s.11-1.21.33-1.74c.22-.53.53-.99.93-1.39.4-.39.87-.7,1.41-.92.54-.22,1.13-.33,1.77-.33s1.21.11,1.75.32c.53.21,1,.51,1.39.9l-1.38,1.38c-.21-.28-.47-.49-.78-.65-.31-.16-.65-.24-1.01-.24-.34,0-.66.07-.95.2-.29.13-.55.32-.76.56s-.38.52-.5.84c-.12.32-.18.67-.18,1.04s.06.73.18,1.05.29.6.5.84c.22.24.47.43.76.56s.61.2.95.2c.37,0,.7-.08,1.01-.24.31-.16.57-.37.79-.65l1.39,1.39Z"/>
    <path class="cls-2" d="m255.26,42.46h-1.97v-8.4h1.97v8.4Z"/>
    <path class="cls-2" d="m258.16,42.46h-2.07l3.31-8.4h2.07l3.31,8.4h-2.07l-.62-1.65h-3.33l-.62,1.65Zm1.25-3.37h2.07l-1.04-2.75-1.04,2.75Z"/>
    <path class="cls-2" d="m268.9,42.46h-1.97v-6.68h-2.4v-1.72h6.77v1.72h-2.4v6.68Z"/>
    <path class="cls-2" d="m274.09,42.46h-1.97v-8.4h1.97v8.4Z"/>
    <path class="cls-2" d="m279.63,42.63c-.64,0-1.23-.11-1.77-.33-.54-.22-1.01-.52-1.41-.92-.4-.39-.71-.86-.93-1.39-.22-.53-.33-1.11-.33-1.74s.11-1.21.33-1.74c.22-.53.53-.99.93-1.39.4-.39.87-.7,1.41-.92.54-.22,1.13-.33,1.78-.33s1.23.11,1.77.33c.54.22,1.01.52,1.4.92.4.39.7.86.92,1.39.22.53.33,1.11.33,1.74s-.11,1.21-.33,1.74c-.22.53-.53.99-.92,1.39-.4.39-.86.7-1.4.92-.54.22-1.13.33-1.77.33Zm0-1.72c.34,0,.66-.07.95-.2.29-.13.55-.32.77-.56.22-.24.39-.52.51-.84.12-.32.18-.67.18-1.04s-.06-.72-.18-1.04c-.12-.32-.29-.6-.51-.84-.22-.24-.47-.43-.77-.56-.29-.13-.61-.2-.95-.2s-.66.07-.96.2c-.3.13-.55.32-.77.56-.22.24-.39.52-.51.84-.12.32-.18.67-.18,1.04s.06.72.18,1.04c.12.32.29.6.51.84.22.24.48.43.77.56s.62.2.96.2Z"/>
    <path class="cls-2" d="m292.9,42.46h-2.3l-3.48-5.36v5.36h-1.97v-8.4h2.3l3.48,5.37v-5.37h1.97v8.4Z"/>
  </g>
</svg>