<?xml version="1.0" encoding="UTF-8"?>
<svg id="Labels" xmlns="http://www.w3.org/2000/svg" viewBox="0 0 65.45 47.1">
  <defs>
    <style>
      .cls-1 {
        fill: #2d9ff7;
        fill-rule: evenodd;
      }

      .cls-1, .cls-2 {
        stroke-width: 0px;
      }

      .cls-2 {
        fill: #fb0000;
      }
    </style>
  </defs>
  <g>
    <path class="cls-1" d="m60.11,5.89c1.21-.61,1.7-2.08,1.1-3.27s-2.06-1.66-3.27-1.06-1.72,2.08-1.13,3.26,2.08,1.67,3.3,1.07Z"/>
    <path class="cls-1" d="m57.61,9.05c-1.53,1.22-1.78,2.21-3.01,3.05-2,1.34-3.09-.33-2.13-1.49.64-.8,1.09-.93,1.7-1.4,3.03-2.27,1.04-6.79-3.18-5.75-7.21,1.8-15.03,9.81-17.87,18.07,2.68-2.98,5.71-5.76,9.18-8.42.04-.03.09-.06.13-.09h.02c.45-.27.99-.27,1.41-.02.39.23.61.64.6,1.1-.03.79-.04,1.17-.05,1.99,0,.19.03.39.09.59.03.1.06.18.1.26.14.29.34.57.58.81.06.06.13.12.2.17.07.06.14.11.22.16.26.18.55.31.83.38.09.02.17.04.26.05.12.02.23.02.34.01,1.73-.11,2.73-.14,4.13-.16.16,0,.33,0,.5,0,.21,0,.44,0,.68,0,.11,0,.22.01.33.03,3.68-.4,7.28-.73,9.74-2.11,6.42-3.58,1.57-12.25-4.81-7.24Z"/>
  </g>
  <path class="cls-1" d="m57.29,23.01c1.38-.69,2.18-1.87,1.8-2.63s-1.79-.81-3.17-.12-2.2,1.88-1.82,2.63,1.82.81,3.2.12Z"/>
  <g>
    <path class="cls-2" d="m34.69,7.7s0,.05-.01.07l-3.22,15.76c-2.68,3.2-5,6.69-6.83,10.51V0c.18.04.34.16.43.35l4.09,8.64c.06.12.14.21.24.28.13.08.28.11.43.09.08-.01.17-.04.25-.09l3.64-2.19s.06-.03.08-.04c.08-.04.17-.05.25-.05.11,0,.21.03.3.08.04.02.07.04.1.07.02.01.03.03.05.04.02.01.03.03.04.04.04.04.08.1.1.16h0c.04.1.06.21.05.32Z"/>
    <path class="cls-2" d="m19.9,42.73l-7.3,1.43c-.05.01-.1.02-.16.02-.53,0-.92-.53-.73-1.05l1.25-3.41c.12-.32.02-.68-.25-.89L.3,29.16c-.44-.35-.39-1.04.11-1.3l1.97-1.06c.33-.18.49-.56.38-.91l-1.93-6.43c-.04-.14-.04-.27-.01-.4l21.58,17.71c-.32.39-.66.81-1.07,1.32-1.14,1.3-1.6,3.01-1.43,4.66Z"/>
    <path class="cls-2" d="m22.69,36.42L1.04,18.66c.14-.14.33-.22.54-.22.05,0,.1,0,.16.02l6.33,1.27c.05.01.1.02.16.02.08,0,.16-.01.24-.04.04-.01.08-.03.11-.05.04-.02.07-.04.1-.06.03-.02.06-.05.09-.08.08-.08.15-.19.19-.31l.76-2.27s.03-.08.05-.12c.02-.04.04-.07.07-.1.01-.02.03-.03.04-.05.02-.02.03-.03.04-.04.03-.03.06-.05.09-.08.03-.02.07-.04.1-.06.11-.05.22-.08.34-.08.2,0,.4.07.56.23l6.18,6.3-2.93-15.12c-.08-.43.26-.77.64-.77.12,0,.24.03.35.1l3.37,2.13c.11.07.23.1.34.1.24,0,.47-.13.58-.36L23.89.34c.07-.14.17-.23.29-.29v34.66c-.58.65-1.03,1.16-1.49,1.7Z"/>
  </g>
  <g>
    <path class="cls-2" d="m24.6,35.32h.02v-.02s-.02.02-.02.02Z"/>
    <path class="cls-2" d="m53.18,29.58c-.37-.19-.63-.32-.92-.46-.12-.06-.25-.12-.4-.2-.04-.02-.07-.04-.11-.05-.61-.3-1.06-.7-1.34-1.17-.27-.44-.39-.94-.35-1.45.03-.44.18-.9.45-1.35.02-.04.04-.08.07-.11.97-1.61,1.51-2.43,2.63-4.04.1-.15.16-.31.18-.47.01-.13,0-.26-.04-.38-.04-.1-.09-.2-.16-.29-.18-.22-.47-.37-.82-.37-.24,0-.47,0-.68,0-.17,0-.33,0-.49,0-1.39.02-2.4.06-4.08.16-.17.01-.34,0-.51-.02-.12-.02-.24-.04-.36-.07-.4-.1-.78-.28-1.13-.51-.09-.06-.18-.13-.27-.2-.09-.07-.17-.15-.25-.22-.32-.31-.58-.67-.76-1.05-.06-.12-.11-.24-.14-.37-.09-.28-.14-.58-.14-.87.01-.8.02-1.2.05-2.01.01-.34-.39-.5-.72-.32-.02.01-.04.02-.06.04-4.48,3.44-8.39,7.22-11.73,11.5-2.27,2.91-4.28,6.04-6.02,9.46-.02.05-.05.09-.09.13-.13.14-.25.28-.37.41v.02h-.02c-.52.58-.94,1.05-1.36,1.55-.09.11-.19.23-.28.34-.33.39-.67.82-1.09,1.33-.99,1.13-1.4,2.62-1.26,4.05.12,1.34.72,2.64,1.77,3.54,2.3,1.69,5.43,1.05,7.19-1.1.9-1.11,1.36-1.66,2.3-2.72.03-.03.07-.06.1-.08,3.69-2.16,7.41-4.29,11.14-6.37.1-.06.19-.11.29-.16.36-.2.71-.4,1.07-.6.1-.06.19-.11.29-.16.1-.06.2-.11.29-.16.36-.2.71-.4,1.07-.59.1-.06.2-.11.29-.16,1.04-.58,2.09-1.15,3.13-1.72.1-.05.19-.11.29-.16.36-.2.72-.39,1.07-.58.1-.05.2-.11.29-.16.1-.05.2-.11.29-.16.36-.19.72-.39,1.07-.58.1-.05.2-.1.29-.16.11-.06.22-.12.32-.18,0,0,0,0,.01,0,.28-.16.26-.58-.04-.73Zm-22.46,10.36c-1.43,1.58-2.13,2.39-3.46,4.07-.82,1.04-2.29,1.22-3.32.38-.11-.09-.17-.14-.28-.22-.61-.49-.92-1.24-.89-2,.02-.54.2-1.08.56-1.53.6-.76,1.07-1.34,1.54-1.9.53-.63,1.07-1.24,1.8-2.06.61-.68,1.46-.99,2.28-.92.62.05,1.22.31,1.69.77.94.93.96,2.45.08,3.41Zm3.51-.64c-.02.11-.11.18-.22.18-.01,0-.03,0-.04,0-.12-.02-.2-.14-.18-.26.33-1.67.04-3.26-.82-4.47-.78-1.09-1.98-1.81-3.38-2.01h0c-.64-.09-1.31-.08-2.01.05-.01,0-.02,0-.04,0-.11,0-.2-.08-.22-.18-.02-.12.06-.24.18-.26.75-.13,1.47-.15,2.15-.05h0c1.52.22,2.83.99,3.68,2.19.93,1.31,1.25,3.02.9,4.81Zm10.19-14.16c-.12.08-.24.16-.36.24-.43.29-.86.58-1.28.87-.11.08-.23.16-.34.24-.11.08-.22.16-.34.24-.4.29-.81.58-1.2.87-.11.08-.22.16-.32.24-2.25,1.67-4.43,3.44-6.55,5.34-.04.04-.1.06-.15.06-.06,0-.12-.03-.17-.08-.08-.09-.07-.23.02-.31,2.21-1.98,4.48-3.82,6.83-5.55.11-.08.22-.16.33-.24.41-.3.82-.59,1.23-.88.11-.08.23-.16.34-.24.12-.08.23-.16.35-.24.44-.3.88-.6,1.32-.9.12-.08.25-.16.37-.24,1.61-1.06,3.25-2.07,4.95-3.04.19-.11.39-.22.58-.33.25-.14.51-.29.76-.43.11-.06.24-.02.3.09.06.11.02.24-.09.3-.47.26-.94.52-1.41.79-.17.1-.34.2-.52.3-1.59.93-3.15,1.89-4.67,2.9Z"/>
  </g>
</svg>